<svg width="41" height="41" viewBox="0 0 41 41" fill="none" xmlns="http://www.w3.org/2000/svg">
<g clip-path="url(#clip0_192_248)">
<path d="M22.9998 39.119H3.73633V7.06271H21.9504L28.5074 13.6197V30.1111" stroke="#0090A1" stroke-width="1.5" stroke-miterlimit="22.9256" stroke-linecap="round" stroke-linejoin="round"/>
<path d="M30.5655 34.511L27.6 37.4765L25.9845 35.8655L25.35 36.5L27.6 38.75L31.2 35.15L30.5655 34.511ZM28.5 32C26.016 32 24 34.016 24 36.5C24 38.984 26.016 41 28.5 41C30.984 41 33 38.984 33 36.5C33 34.016 30.984 32 28.5 32ZM28.5 40.1C26.511 40.1 24.9 38.489 24.9 36.5C24.9 34.511 26.511 32.9 28.5 32.9C30.489 32.9 32.1 34.511 32.1 36.5C32.1 38.489 30.489 40.1 28.5 40.1Z" fill="#0090A1"/>
<path d="M28.1432 13.6197H21.9502V7.42677" stroke="#0090A1" stroke-width="1.5" stroke-miterlimit="22.9256" stroke-linecap="round" stroke-linejoin="round"/>
<path d="M13.5713 18.1729H25.2283" stroke="#0090A1" stroke-width="1.5" stroke-miterlimit="22.9256" stroke-linecap="round" stroke-linejoin="round"/>
<path d="M7.01514 31.2869H11.2315" stroke="#0090A1" stroke-width="1.5" stroke-miterlimit="22.9256" stroke-linecap="round" stroke-linejoin="round"/>
<path d="M7.01514 34.5658H15.4487" stroke="#0090A1" stroke-width="1.5" stroke-miterlimit="22.9256" stroke-linecap="round" stroke-linejoin="round"/>
<path d="M10.2933 7.42677V11.9799C10.2933 12.8815 9.55576 13.619 8.6542 13.619C7.75264 13.619 7.01514 12.8815 7.01514 11.9799" stroke="#0090A1" stroke-width="1.5" stroke-miterlimit="22.9256" stroke-linecap="round" stroke-linejoin="round"/>
<path d="M10.294 18.1729H7.01514V21.4518H10.294V18.1729Z" stroke="#0090A1" stroke-width="1.5" stroke-miterlimit="22.9256" stroke-linecap="round" stroke-linejoin="round"/>
<path d="M10.294 24.7299H7.01514V28.0088H10.294V24.7299Z" stroke="#0090A1" stroke-width="1.5" stroke-miterlimit="22.9256" stroke-linecap="round" stroke-linejoin="round"/>
<path d="M13.5713 21.4518H19.4002" stroke="#0090A1" stroke-width="1.5" stroke-miterlimit="22.9256" stroke-linecap="round" stroke-linejoin="round"/>
<path d="M13.5713 24.7299H25.2283" stroke="#0090A1" stroke-width="1.5" stroke-miterlimit="22.9256" stroke-linecap="round" stroke-linejoin="round"/>
<path d="M13.5713 28.0088H16.4861" stroke="#0090A1" stroke-width="1.5" stroke-miterlimit="22.9256" stroke-linecap="round" stroke-linejoin="round"/>
<path d="M11.6479 6.28614V2.27521H29.862L36.419 8.83224V34.3244" stroke="#0090A1" stroke-width="1.5" stroke-miterlimit="22.9256" stroke-linecap="round" stroke-linejoin="round"/>
<path d="M36.3939 34.3322L34.4995 34.3322" stroke="#0090A1" stroke-width="1.5" stroke-miterlimit="22.9256" stroke-linecap="round" stroke-linejoin="round"/>
<path d="M36.0548 8.83224H29.8618V2.64005" stroke="#0090A1" stroke-width="1.5" stroke-miterlimit="22.9256" stroke-linecap="round" stroke-linejoin="round"/>
</g>
<defs>
<clipPath id="clip0_192_248">
<rect width="40" height="40" fill="white" transform="translate(0.0644531 0.993958)"/>
</clipPath>
</defs>
</svg>
