<svg width="21" height="20" viewBox="0 0 21 20" fill="none" xmlns="http://www.w3.org/2000/svg">
<circle cx="10.5265" cy="10.0528" r="9.94737" fill="#0076FF"/>
<path d="M13.0448 5.81702C13.1577 5.70413 13.2917 5.61458 13.4392 5.55348C13.5867 5.49238 13.7448 5.46094 13.9044 5.46094C14.0641 5.46094 14.2222 5.49238 14.3697 5.55348C14.5172 5.61458 14.6512 5.70413 14.7641 5.81702C14.877 5.92991 14.9665 6.06393 15.0276 6.21143C15.0887 6.35892 15.1202 6.51701 15.1202 6.67666C15.1202 6.83632 15.0887 6.9944 15.0276 7.1419C14.9665 7.2894 14.877 7.42342 14.7641 7.53631L8.96145 13.3389L6.59741 13.9837L7.24215 11.6196L13.0448 5.81702Z" fill="white"/>
</svg>
