<svg width="41" height="41" viewBox="0 0 41 41" fill="none" xmlns="http://www.w3.org/2000/svg">
<path d="M28.6118 39.119H3.86572V7.06271H22.0798L28.6368 13.6197V39.1111" stroke="#0090A1" stroke-width="1.5" stroke-miterlimit="22.9256" stroke-linecap="round" stroke-linejoin="round"/>
<path d="M28.2726 13.6197H22.0796V7.42677" stroke="#0090A1" stroke-width="1.5" stroke-miterlimit="22.9256" stroke-linecap="round" stroke-linejoin="round"/>
<path d="M13.7007 18.1729H25.3577" stroke="#0090A1" stroke-width="1.5" stroke-miterlimit="22.9256" stroke-linecap="round" stroke-linejoin="round"/>
<path d="M7.14453 31.2869H11.3609" stroke="#0090A1" stroke-width="1.5" stroke-miterlimit="22.9256" stroke-linecap="round" stroke-linejoin="round"/>
<path d="M7.14453 34.5658H15.5781" stroke="#0090A1" stroke-width="1.5" stroke-miterlimit="22.9256" stroke-linecap="round" stroke-linejoin="round"/>
<path d="M10.4227 7.42677V11.9799C10.4227 12.8815 9.68516 13.619 8.78359 13.619C7.88203 13.619 7.14453 12.8815 7.14453 11.9799" stroke="#0090A1" stroke-width="1.5" stroke-miterlimit="22.9256" stroke-linecap="round" stroke-linejoin="round"/>
<path d="M10.4234 18.1729H7.14453V21.4518H10.4234V18.1729Z" stroke="#0090A1" stroke-width="1.5" stroke-miterlimit="22.9256" stroke-linecap="round" stroke-linejoin="round"/>
<path d="M10.4234 24.7299H7.14453V28.0088H10.4234V24.7299Z" stroke="#0090A1" stroke-width="1.5" stroke-miterlimit="22.9256" stroke-linecap="round" stroke-linejoin="round"/>
<path d="M13.7007 21.4518H19.5296" stroke="#0090A1" stroke-width="1.5" stroke-miterlimit="22.9256" stroke-linecap="round" stroke-linejoin="round"/>
<path d="M13.7007 24.7299H25.3577" stroke="#0090A1" stroke-width="1.5" stroke-miterlimit="22.9256" stroke-linecap="round" stroke-linejoin="round"/>
<path d="M13.7007 28.0088H16.6155" stroke="#0090A1" stroke-width="1.5" stroke-miterlimit="22.9256" stroke-linecap="round" stroke-linejoin="round"/>
<path d="M11.7773 6.28614V2.27521H29.9914L36.5484 8.83224V34.3244" stroke="#0090A1" stroke-width="1.5" stroke-miterlimit="22.9256" stroke-linecap="round" stroke-linejoin="round"/>
<path d="M36.5235 34.3322H29.5024" stroke="#0090A1" stroke-width="1.5" stroke-miterlimit="22.9256" stroke-linecap="round" stroke-linejoin="round"/>
<path d="M36.1842 8.83224H29.9912V2.64005" stroke="#0090A1" stroke-width="1.5" stroke-miterlimit="22.9256" stroke-linecap="round" stroke-linejoin="round"/>
</svg>
