<svg width="13" height="13" viewBox="0 0 13 13" fill="none" xmlns="http://www.w3.org/2000/svg">
<g id="ic:round-attachment" clip-path="url(#clip0_208_5135)">
<path id="Vector" d="M8.04248 3.22256V8.51256C8.04248 9.55756 7.27748 10.4876 6.23748 10.5876C5.95973 10.6149 5.67933 10.5838 5.41433 10.4963C5.14933 10.4087 4.90559 10.2666 4.69883 10.0792C4.49206 9.8917 4.32683 9.66302 4.21379 9.40785C4.10075 9.15267 4.0424 8.87665 4.04248 8.59756L4.04248 2.41756C4.04248 1.76256 4.51248 1.16756 5.16248 1.10256C5.3368 1.08433 5.513 1.10296 5.67965 1.15725C5.8463 1.21153 5.99967 1.30026 6.1298 1.41766C6.25994 1.53507 6.36393 1.67853 6.43503 1.83873C6.50612 1.99893 6.54273 2.17229 6.54248 2.34756V7.59756C6.54248 7.87256 6.31748 8.09756 6.04248 8.09756C5.76748 8.09756 5.54248 7.87256 5.54248 7.59756V3.22256C5.54248 3.01756 5.37248 2.84756 5.16748 2.84756C4.96248 2.84756 4.79248 3.01756 4.79248 3.22256V7.52756C4.79248 8.18256 5.26248 8.77756 5.91248 8.84256C6.0868 8.86078 6.263 8.84215 6.42965 8.78786C6.5963 8.73358 6.74967 8.64485 6.8798 8.52745C7.00994 8.41004 7.11393 8.26659 7.18503 8.10639C7.25612 7.94618 7.29273 7.77282 7.29248 7.59756L7.29248 2.43256C7.29248 1.38756 6.52748 0.457557 5.48748 0.357556C5.20966 0.329796 4.9291 0.360618 4.66392 0.448032C4.39875 0.535447 4.15486 0.677509 3.948 0.865045C3.74115 1.05258 3.57593 1.28142 3.46302 1.53678C3.3501 1.79214 3.29201 2.06835 3.29248 2.34756L3.29248 8.48256C3.29248 9.91756 4.34248 11.2026 5.77248 11.3376C6.15473 11.3749 6.54056 11.3318 6.90516 11.2111C7.26976 11.0904 7.60506 10.8947 7.8895 10.6366C8.17394 10.3785 8.40122 10.0638 8.55674 9.71262C8.71226 9.36145 8.79256 8.98162 8.79248 8.59756V3.22256C8.79248 3.01756 8.62248 2.84756 8.41748 2.84756C8.21248 2.84756 8.04248 3.01756 8.04248 3.22256Z" fill="black"/>
</g>
<defs>
<clipPath id="clip0_208_5135">
<rect width="12" height="12" fill="white" transform="matrix(0 -1 1 0 0.0424805 12.0976)"/>
</clipPath>
</defs>
</svg>
