<svg width="41" height="41" viewBox="0 0 41 41" fill="none" xmlns="http://www.w3.org/2000/svg">
<g clip-path="url(#clip0_192_271)">
<path d="M23.8704 39.119H4.60693V7.06271H22.821L29.378 13.6197V30.1111" stroke="#0090A1" stroke-width="1.5" stroke-miterlimit="22.9256" stroke-linecap="round" stroke-linejoin="round"/>
<path d="M29.8472 41C29.8472 40.6929 29.8472 40.3935 29.8472 40.0913C30.8079 39.9811 31.6094 39.5673 32.2385 38.832C32.7424 38.2435 33.0255 37.558 33.083 36.7852C33.1549 35.8086 32.8815 34.9353 32.2531 34.184C31.6267 33.4354 30.8169 33.0189 29.8472 32.9066C29.8472 32.6058 29.8472 32.3063 29.8472 32C30.7684 32.0783 31.5935 32.3958 32.3091 32.9766C33.2283 33.7217 33.7896 34.6844 33.9516 35.8592C34.1419 37.2385 33.7709 38.466 32.8497 39.5063C32.0572 40.4025 31.0446 40.8884 29.8472 41Z" fill="#0090A1"/>
<path d="M27.1963 36.5669C27.2731 36.4934 27.3479 36.4248 27.4199 36.3534C27.4932 36.2799 27.5638 36.2037 27.6358 36.1295C27.6905 36.0734 27.7472 36.0186 27.8019 35.9618C27.8275 35.9348 27.8448 35.9299 27.8753 35.9604C28.2158 36.3042 28.5577 36.6466 28.9004 36.9904C29.6541 36.2363 30.4065 35.4829 31.1616 34.7274C31.3748 34.9409 31.5866 35.1529 31.8018 35.3685C31.7582 35.4122 31.7167 35.4538 31.6752 35.4946C31.5644 35.6035 31.453 35.7109 31.3429 35.8204C31.2274 35.9362 31.1138 36.0554 30.9983 36.1711C30.8757 36.2938 30.7512 36.4137 30.6286 36.5364C30.4971 36.6667 30.367 36.7984 30.2369 36.9301C30.1206 37.0479 30.0057 37.1671 29.888 37.2842C29.7302 37.4423 29.5704 37.5982 29.4125 37.7556C29.299 37.8692 29.1869 37.9843 29.0741 38.0987C29.0277 38.1458 28.98 38.1908 28.9363 38.24C28.9024 38.2782 28.8824 38.2546 28.8588 38.231C28.7003 38.0702 28.5425 37.9094 28.3833 37.75C28.2193 37.5858 28.0532 37.4229 27.8891 37.2586C27.6863 37.0548 27.4849 36.849 27.2821 36.6438C27.2572 36.6182 27.2281 36.5946 27.1963 36.5669Z" fill="#0090A1"/>
<path d="M26.5713 39.9298C26.7859 39.7164 26.9983 39.5057 27.2136 39.2915C27.7722 39.7441 28.4152 40.013 29.1433 40.0886C29.1433 40.1149 29.1433 40.1378 29.1433 40.1599C29.1433 40.4219 29.1426 40.6839 29.144 40.9466C29.144 40.9854 29.1378 40.9993 29.0928 40.9951C28.782 40.9639 28.4761 40.9071 28.1771 40.8156C27.9113 40.7345 27.6552 40.6278 27.4088 40.4989C27.1409 40.3582 26.8911 40.1911 26.6543 40.004C26.6267 39.9818 26.6011 39.9562 26.5713 39.9298Z" fill="#0090A1"/>
<path d="M29.143 32C29.143 32.2682 29.143 32.5268 29.143 32.7853C29.143 32.9087 29.1437 32.9128 29.0232 32.9253C28.7464 32.953 28.4813 33.0272 28.2224 33.1242C27.9172 33.2386 27.6313 33.3911 27.3704 33.5879C27.3247 33.6226 27.2804 33.6586 27.2327 33.6898C27.2216 33.6974 27.1939 33.696 27.1849 33.687C26.9793 33.4853 26.7758 33.2822 26.5654 33.0729C26.816 32.8525 27.0845 32.6695 27.3725 32.5164C27.9241 32.2218 28.5131 32.0513 29.143 32Z" fill="#0090A1"/>
<path d="M26.6999 38.7945C26.4964 38.9997 26.286 39.2118 26.0687 39.4308C25.4395 38.6843 25.0879 37.8283 25 36.8531C25.0208 36.8531 25.0381 36.8531 25.0554 36.8531C25.3239 36.8531 25.5932 36.8538 25.8617 36.8531C25.8956 36.8531 25.9102 36.8587 25.9164 36.8982C25.9475 37.0818 25.9773 37.2669 26.0202 37.4485C26.0881 37.7348 26.203 38.0044 26.3483 38.2587C26.4542 38.441 26.5802 38.6129 26.6999 38.7945Z" fill="#0090A1"/>
<path d="M25.91 36.1413C25.6061 36.1413 25.3071 36.1413 25.0005 36.1413C25.0877 35.1716 25.4379 34.3177 26.0643 33.5713C26.2768 33.7903 26.4845 34.0051 26.6976 34.2249C26.2554 34.7724 25.9854 35.4135 25.91 36.1413Z" fill="#0090A1"/>
<path d="M29.0138 13.6197H22.8208V7.42677" stroke="#0090A1" stroke-width="1.5" stroke-miterlimit="22.9256" stroke-linecap="round" stroke-linejoin="round"/>
<path d="M14.4419 18.1729H26.0989" stroke="#0090A1" stroke-width="1.5" stroke-miterlimit="22.9256" stroke-linecap="round" stroke-linejoin="round"/>
<path d="M7.88574 31.2869H12.1021" stroke="#0090A1" stroke-width="1.5" stroke-miterlimit="22.9256" stroke-linecap="round" stroke-linejoin="round"/>
<path d="M7.88574 34.5658H16.3193" stroke="#0090A1" stroke-width="1.5" stroke-miterlimit="22.9256" stroke-linecap="round" stroke-linejoin="round"/>
<path d="M11.1639 7.42677V11.9799C11.1639 12.8815 10.4264 13.619 9.5248 13.619C8.62324 13.619 7.88574 12.8815 7.88574 11.9799" stroke="#0090A1" stroke-width="1.5" stroke-miterlimit="22.9256" stroke-linecap="round" stroke-linejoin="round"/>
<path d="M11.1646 18.1729H7.88574V21.4518H11.1646V18.1729Z" stroke="#0090A1" stroke-width="1.5" stroke-miterlimit="22.9256" stroke-linecap="round" stroke-linejoin="round"/>
<path d="M11.1646 24.7299H7.88574V28.0088H11.1646V24.7299Z" stroke="#0090A1" stroke-width="1.5" stroke-miterlimit="22.9256" stroke-linecap="round" stroke-linejoin="round"/>
<path d="M14.4419 21.4518H20.2708" stroke="#0090A1" stroke-width="1.5" stroke-miterlimit="22.9256" stroke-linecap="round" stroke-linejoin="round"/>
<path d="M14.4419 24.7299H26.0989" stroke="#0090A1" stroke-width="1.5" stroke-miterlimit="22.9256" stroke-linecap="round" stroke-linejoin="round"/>
<path d="M14.4419 28.0088H17.3567" stroke="#0090A1" stroke-width="1.5" stroke-miterlimit="22.9256" stroke-linecap="round" stroke-linejoin="round"/>
<path d="M12.5186 6.28614V2.27521H30.7326L37.2896 8.83224V34.3244" stroke="#0090A1" stroke-width="1.5" stroke-miterlimit="22.9256" stroke-linecap="round" stroke-linejoin="round"/>
<path d="M37.2645 34.3322L35.3701 34.3322" stroke="#0090A1" stroke-width="1.5" stroke-miterlimit="22.9256" stroke-linecap="round" stroke-linejoin="round"/>
<path d="M36.9254 8.83224H30.7324V2.64005" stroke="#0090A1" stroke-width="1.5" stroke-miterlimit="22.9256" stroke-linecap="round" stroke-linejoin="round"/>
</g>
<defs>
<clipPath id="clip0_192_271">
<rect width="40" height="40" fill="white" transform="translate(0.935059 0.993958)"/>
</clipPath>
</defs>
</svg>
