<svg width="41" height="41" viewBox="0 0 41 41" fill="none" xmlns="http://www.w3.org/2000/svg">
<g clip-path="url(#clip0_192_300)">
<path fill-rule="evenodd" clip-rule="evenodd" d="M14.9113 12.9209H27.6087C27.9493 12.9209 28.2256 12.6446 28.2256 12.304V5.43375C28.2256 5.09318 27.9493 4.81687 27.6087 4.81687H14.9113C14.5707 4.81687 14.2944 5.09318 14.2944 5.43375V12.303C14.2944 12.6446 14.5707 12.9209 14.9113 12.9209ZM26.9918 11.6871H15.5282V6.05063H26.9918V11.6871Z" fill="#0090A1"/>
<path fill-rule="evenodd" clip-rule="evenodd" d="M28.4083 23.2483H34.7581C35.0987 23.2483 35.375 22.9719 35.375 22.6314V16.2827C35.375 15.9421 35.0987 15.6658 34.7581 15.6658H28.4094C28.0688 15.6658 27.7925 15.9421 27.7925 16.2827V22.6314C27.7915 22.9719 28.0678 23.2483 28.4083 23.2483ZM34.1402 22.0145H29.0252V16.8995H34.1402V22.0145Z" fill="#0090A1"/>
<path fill-rule="evenodd" clip-rule="evenodd" d="M7.76146 23.2483H14.1102C14.4507 23.2483 14.7271 22.9719 14.7271 22.6314V16.2827C14.7271 15.9421 14.4507 15.6658 14.1102 15.6658H7.76146C7.42089 15.6658 7.14458 15.9421 7.14458 16.2827V22.6314C7.14565 22.9719 7.42089 23.2483 7.76146 23.2483ZM13.4944 22.0145H8.37941V16.8995H13.4944V22.0145Z" fill="#0090A1"/>
<path fill-rule="evenodd" clip-rule="evenodd" d="M37.2088 36.6632C39.2993 36.6632 41 34.9625 41 32.872C41 30.7815 39.2993 29.0808 37.2088 29.0808C35.1182 29.0808 33.4175 30.7815 33.4175 32.872C33.4175 34.9625 35.1182 36.6632 37.2088 36.6632ZM37.2088 30.3134C38.6192 30.3134 39.7662 31.4605 39.7662 32.8709C39.7662 34.2814 38.6192 35.4284 37.2088 35.4284C35.7983 35.4284 34.6513 34.2814 34.6513 32.8709C34.6513 31.4615 35.7983 30.3134 37.2088 30.3134Z" fill="#0090A1"/>
<path fill-rule="evenodd" clip-rule="evenodd" d="M15.9436 36.6632C18.0342 36.6632 19.7349 34.9625 19.7349 32.872C19.7349 30.7815 18.0342 29.0808 15.9436 29.0808C13.8531 29.0808 12.1524 30.7815 12.1524 32.872C12.1524 34.9625 13.8531 36.6632 15.9436 36.6632ZM15.9436 30.3134C17.3541 30.3134 18.5011 31.4605 18.5011 32.8709C18.5011 34.2814 17.3541 35.4284 15.9436 35.4284C14.5332 35.4284 13.3862 34.2814 13.3862 32.8709C13.3862 31.4615 14.5332 30.3134 15.9436 30.3134Z" fill="#0090A1"/>
<path fill-rule="evenodd" clip-rule="evenodd" d="M26.5764 36.6632C28.667 36.6632 30.3677 34.9625 30.3677 32.872C30.3677 30.7815 28.667 29.0808 26.5764 29.0808C24.4859 29.0808 22.7852 30.7815 22.7852 32.872C22.7852 34.9625 24.4859 36.6632 26.5764 36.6632ZM26.5764 30.3134C27.9869 30.3134 29.1339 31.4605 29.1339 32.8709C29.1339 34.2814 27.9869 35.4284 26.5764 35.4284C25.166 35.4284 24.019 34.2814 24.019 32.8709C24.019 31.4615 25.166 30.3134 26.5764 30.3134Z" fill="#0090A1"/>
<path fill-rule="evenodd" clip-rule="evenodd" d="M5.31082 36.6632C7.40135 36.6632 9.10205 34.9625 9.10205 32.872C9.10205 30.7815 7.40135 29.0808 5.31082 29.0808C3.22028 29.0808 1.51958 30.7815 1.51958 32.872C1.51958 34.9625 3.22028 36.6632 5.31082 36.6632ZM5.31082 30.3134C6.72128 30.3134 7.86829 31.4605 7.86829 32.8709C7.86829 34.2814 6.72128 35.4284 5.31082 35.4284C3.90035 35.4284 2.75334 34.2814 2.75334 32.8709C2.75334 31.4615 3.90035 30.3134 5.31082 30.3134Z" fill="#0090A1"/>
<path fill-rule="evenodd" clip-rule="evenodd" d="M14.2043 20.0675H28.3079C28.6485 20.0675 28.9248 19.7912 28.9248 19.4506C28.9248 19.11 28.6485 18.8337 28.3079 18.8337H14.2043C13.8637 18.8337 13.5874 19.11 13.5874 19.4506C13.5874 19.7912 13.8637 20.0675 14.2043 20.0675Z" fill="#0090A1"/>
<path fill-rule="evenodd" clip-rule="evenodd" d="M21.2601 20.0279C21.6006 20.0279 21.877 19.7548 21.877 19.4163V12.3372C21.877 11.9999 21.6006 11.7257 21.2601 11.7257C20.9195 11.7257 20.6432 11.9988 20.6432 12.3372V19.4163C20.6432 19.7537 20.9195 20.0279 21.2601 20.0279Z" fill="#0090A1"/>
<path fill-rule="evenodd" clip-rule="evenodd" d="M26.5678 30.2674C26.9084 30.2674 27.1847 29.9911 27.1847 29.6505V27.0759H31.596C31.9366 27.0759 32.2129 26.7996 32.2129 26.459V22.7042C32.2129 22.3636 31.9366 22.0873 31.596 22.0873C31.2554 22.0873 30.9791 22.3636 30.9791 22.7042V25.8422H26.5678C26.2272 25.8422 25.9509 26.1185 25.9509 26.459V29.6494C25.9509 29.9911 26.2272 30.2674 26.5678 30.2674Z" fill="#0090A1"/>
<path fill-rule="evenodd" clip-rule="evenodd" d="M37.2088 30.2471C37.5494 30.2471 37.8257 29.9707 37.8257 29.6302V26.459C37.8257 26.1185 37.5494 25.8422 37.2088 25.8422H31.5959C31.2553 25.8422 30.979 26.1185 30.979 26.459C30.979 26.7996 31.2553 27.0759 31.5959 27.0759H36.5919V29.6302C36.5919 29.9707 36.8682 30.2471 37.2088 30.2471Z" fill="#0090A1"/>
<path fill-rule="evenodd" clip-rule="evenodd" d="M15.952 30.2406C16.2925 30.2406 16.5688 29.9643 16.5688 29.6238V26.3584C16.5688 26.0178 16.2925 25.7415 15.952 25.7415H11.5653V22.6678C11.5653 22.3272 11.289 22.0509 10.9484 22.0509C10.6078 22.0509 10.3315 22.3272 10.3315 22.6678V26.3584C10.3315 26.6989 10.6078 26.9753 10.9484 26.9753H15.3351V29.6238C15.3351 29.9643 15.6114 30.2406 15.952 30.2406Z" fill="#0090A1"/>
<path fill-rule="evenodd" clip-rule="evenodd" d="M5.31096 30.2642C5.65153 30.2642 5.92784 29.9879 5.92784 29.6473V26.9752H10.9485C11.2891 26.9752 11.5654 26.6989 11.5654 26.3584C11.5654 26.0178 11.2891 25.7415 10.9485 25.7415H5.31096C4.9704 25.7415 4.69408 26.0178 4.69408 26.3584V29.6473C4.69408 29.9879 4.9704 30.2642 5.31096 30.2642Z" fill="#0090A1"/>
</g>
<defs>
<clipPath id="clip0_192_300">
<rect width="40" height="40" fill="white" transform="translate(0.805664 0.993958)"/>
</clipPath>
</defs>
</svg>
