<svg width="19" height="19" viewBox="0 0 19 19" fill="none" xmlns="http://www.w3.org/2000/svg">
<path d="M16.1958 9.57844C16.1958 9.72762 16.1365 9.8707 16.031 9.97619C15.9255 10.0817 15.7824 10.1409 15.6333 10.1409H4.61599L8.71872 14.243C8.77099 14.2952 8.81244 14.3573 8.84073 14.4256C8.86901 14.4938 8.88357 14.567 8.88357 14.6409C8.88357 14.7148 8.86901 14.788 8.84073 14.8563C8.81244 14.9246 8.77099 14.9866 8.71872 15.0389C8.66646 15.0912 8.60442 15.1326 8.53613 15.1609C8.46785 15.1892 8.39466 15.2038 8.32076 15.2038C8.24685 15.2038 8.17366 15.1892 8.10538 15.1609C8.03709 15.1326 7.97505 15.0912 7.92279 15.0389L2.86029 9.97641C2.80799 9.92417 2.7665 9.86213 2.73819 9.79384C2.70988 9.72556 2.69531 9.65236 2.69531 9.57844C2.69531 9.50452 2.70988 9.43132 2.73819 9.36303C2.7665 9.29475 2.80799 9.23271 2.86029 9.18047L7.92279 4.11797C8.02833 4.01242 8.17149 3.95312 8.32076 3.95312C8.47002 3.95313 8.61318 4.01242 8.71872 4.11797C8.82427 4.22352 8.88357 4.36667 8.88357 4.51594C8.88357 4.66521 8.82427 4.80836 8.71872 4.91391L4.61599 9.01594H15.6333C15.7824 9.01594 15.9255 9.0752 16.031 9.18069C16.1365 9.28618 16.1958 9.42925 16.1958 9.57844Z" fill="#0090A1"/>
</svg>
