<svg width="55" height="54" viewBox="0 0 55 54" fill="none" xmlns="http://www.w3.org/2000/svg">
<path d="M25.25 33.75H29.75V38.25H25.25V33.75ZM25.25 15.75H29.75V29.25H25.25V15.75ZM27.5 4.5C15.0575 4.5 5 14.625 5 27C5 32.9674 7.37053 38.6903 11.5901 42.9099C13.6794 44.9992 16.1598 46.6566 18.8896 47.7873C21.6194 48.918 24.5453 49.5 27.5 49.5C33.4674 49.5 39.1903 47.1295 43.4099 42.9099C47.6295 38.6903 50 32.9674 50 27C50 24.0453 49.418 21.1194 48.2873 18.3896C47.1566 15.6598 45.4992 13.1794 43.4099 11.0901C41.3206 9.00078 38.8402 7.34344 36.1104 6.21271C33.3806 5.08198 30.4547 4.5 27.5 4.5ZM27.5 45C22.7261 45 18.1477 43.1036 14.7721 39.7279C11.3964 36.3523 9.5 31.7739 9.5 27C9.5 22.2261 11.3964 17.6477 14.7721 14.2721C18.1477 10.8964 22.7261 9 27.5 9C32.2739 9 36.8523 10.8964 40.2279 14.2721C43.6036 17.6477 45.5 22.2261 45.5 27C45.5 31.7739 43.6036 36.3523 40.2279 39.7279C36.8523 43.1036 32.2739 45 27.5 45Z" fill="#2196F3"/>
</svg>
