<svg width="25" height="25" viewBox="0 0 25 25" fill="none" xmlns="http://www.w3.org/2000/svg">
<path d="M17 9.5C17 10.6935 16.5259 11.8381 15.682 12.682C14.8381 13.5259 13.6935 14 12.5 14C11.3065 14 10.1619 13.5259 9.31802 12.682C8.47411 11.8381 8 10.6935 8 9.5C8 8.30653 8.47411 7.16193 9.31802 6.31802C10.1619 5.47411 11.3065 5 12.5 5C13.6935 5 14.8381 5.47411 15.682 6.31802C16.5259 7.16193 17 8.30653 17 9.5Z" fill="#777887"/>
<path fill-rule="evenodd" clip-rule="evenodd" d="M0.5 12.5C0.5 9.3174 1.76428 6.26516 4.01472 4.01472C6.26516 1.76428 9.3174 0.5 12.5 0.5C15.6826 0.5 18.7348 1.76428 20.9853 4.01472C23.2357 6.26516 24.5 9.3174 24.5 12.5C24.5 15.6826 23.2357 18.7348 20.9853 20.9853C18.7348 23.2357 15.6826 24.5 12.5 24.5C9.3174 24.5 6.26516 23.2357 4.01472 20.9853C1.76428 18.7348 0.5 15.6826 0.5 12.5ZM12.5 2C10.5227 2.00011 8.58555 2.55854 6.9116 3.61104C5.23766 4.66354 3.89492 6.16732 3.03795 7.94929C2.18097 9.73127 1.84458 11.719 2.0675 13.6837C2.29042 15.6485 3.06358 17.5103 4.298 19.055C5.363 17.339 7.7075 15.5 12.5 15.5C17.2925 15.5 19.6355 17.3375 20.702 19.055C21.9364 17.5103 22.7096 15.6485 22.9325 13.6837C23.1554 11.719 22.819 9.73127 21.9621 7.94929C21.1051 6.16732 19.7623 4.66354 18.0884 3.61104C16.4145 2.55854 14.4773 2.00011 12.5 2Z" fill="#777887"/>
</svg>
