<svg width="1440" height="593" viewBox="0 0 1440 593" fill="none" xmlns="http://www.w3.org/2000/svg">
<path d="M1182.74 112.413C1213.18 112.413 1237.86 87.7377 1237.86 57.2994C1237.86 26.8611 1213.18 2.18604 1182.74 2.18604C1152.31 2.18604 1127.63 26.8611 1127.63 57.2994C1127.63 87.7377 1152.31 112.413 1182.74 112.413Z" fill="#EDF1F8"/>
<path d="M28.1293 230.411C41.2702 189.379 73.3575 157.557 111.411 138.631C156.561 116.174 208.443 113.632 257.466 122.372C310.387 131.807 359.848 153.557 407.724 177.292C454.684 200.573 500.887 225.157 549.724 244.396C647.223 282.751 750.563 304.156 855.276 307.685C949.525 310.829 1050.3 300.503 1131 247.532C1204.94 198.995 1251.99 118.925 1276.5 35.4594C1279.63 24.774 1282.42 13.9966 1284.86 3.12739C1285.58 -0.0122694 1280.75 -1.35279 1280.03 1.79546C1260.26 88.9542 1218.11 175.097 1146.09 230.656C1068.19 290.747 965.953 304.638 870.281 303.049C764.423 301.2 659.689 280.99 560.745 243.319C510.651 224.249 463.38 199.486 415.507 175.58C368.685 152.199 320.548 130.312 269.061 119.528C222.047 109.681 171.711 109.081 126.382 126.603C89.057 141.031 55.0245 166.749 35.108 201.929C30.2517 210.551 26.2942 219.648 23.2978 229.079C22.3121 232.157 27.1481 233.475 28.1293 230.411Z" fill="#EDF1F8"/>
<path d="M234.086 543.965C234.086 514.469 210.158 444.476 180.641 444.476C151.124 444.476 127.195 514.469 127.195 543.965C127.195 558.139 132.826 571.732 142.849 581.755C152.872 591.777 166.466 597.408 180.641 597.408C194.816 597.408 208.41 591.777 218.433 581.755C228.456 571.732 234.087 558.139 234.087 543.965H234.086Z" fill="#E3EBF5"/>
<path d="M220.725 543.965C220.725 514.469 196.797 444.476 167.28 444.476C137.762 444.476 113.834 514.469 113.834 543.965C113.834 558.139 119.465 571.732 129.488 581.755C139.511 591.777 153.105 597.408 167.28 597.408C181.454 597.408 195.048 591.777 205.071 581.755C215.094 571.732 220.725 558.139 220.725 543.965H220.725Z" fill="#EDF1F8"/>
<path d="M168.949 663.461C168.507 663.461 168.082 663.285 167.769 662.972C167.455 662.659 167.279 662.234 167.279 661.791V512.917C167.279 512.474 167.455 512.049 167.768 511.736C168.082 511.423 168.507 511.247 168.949 511.247C169.392 511.247 169.817 511.423 170.13 511.736C170.444 512.049 170.62 512.474 170.62 512.917V661.791C170.62 662.234 170.444 662.659 170.13 662.972C169.817 663.285 169.392 663.461 168.949 663.461Z" fill="#E3EBF5"/>
<path d="M168.949 537.323C168.619 537.323 168.296 537.225 168.021 537.041C167.747 536.858 167.533 536.597 167.406 536.292C167.28 535.987 167.247 535.651 167.311 535.327C167.376 535.003 167.535 534.706 167.768 534.472L189.61 512.63C189.923 512.317 190.348 512.141 190.791 512.141C191.234 512.141 191.659 512.317 191.972 512.63C192.285 512.943 192.461 513.368 192.461 513.811C192.461 514.254 192.285 514.679 191.972 514.992L170.13 536.834C169.975 536.989 169.791 537.112 169.588 537.196C169.386 537.28 169.168 537.323 168.949 537.323Z" fill="#E3EBF5"/>
<path d="M783.573 663.461C783.13 663.461 782.705 663.285 782.392 662.972C782.078 662.659 781.902 662.234 781.902 661.791V512.917C781.902 512.474 782.078 512.049 782.392 511.736C782.705 511.423 783.13 511.247 783.573 511.247C784.015 511.247 784.44 511.423 784.753 511.736C785.067 512.049 785.243 512.474 785.243 512.917V661.791C785.243 662.234 785.067 662.659 784.753 662.972C784.44 663.285 784.015 663.461 783.573 663.461Z" fill="#DDE8F0"/>
<path d="M962.282 543.965C962.282 514.469 938.353 444.476 908.836 444.476C879.319 444.476 855.391 514.469 855.391 543.965C855.391 558.139 861.022 571.732 871.045 581.755C881.068 591.777 894.662 597.408 908.836 597.408C923.011 597.408 936.605 591.777 946.628 581.755C956.651 571.732 962.282 558.139 962.282 543.965H962.282Z" fill="#E3EBF5"/>
<path d="M948.92 543.965C948.92 514.469 924.992 444.476 895.475 444.476C865.958 444.476 842.029 514.469 842.029 543.965C842.029 558.139 847.66 571.732 857.683 581.755C867.706 591.777 881.3 597.408 895.475 597.408C909.65 597.408 923.244 591.777 933.267 581.755C943.29 571.732 948.921 558.139 948.921 543.965H948.92Z" fill="#EDF1F8"/>
<path d="M897.145 663.461C896.702 663.461 896.277 663.285 895.964 662.972C895.651 662.659 895.475 662.234 895.475 661.791V512.917C895.475 512.474 895.651 512.049 895.964 511.736C896.277 511.423 896.702 511.247 897.145 511.247C897.588 511.247 898.013 511.423 898.326 511.736C898.639 512.049 898.815 512.474 898.815 512.917V661.791C898.815 662.234 898.639 662.659 898.326 662.972C898.013 663.285 897.588 663.461 897.145 663.461Z" fill="#E3EBF5"/>
<path d="M897.144 537.323C896.814 537.323 896.491 537.225 896.217 537.041C895.942 536.858 895.728 536.597 895.602 536.292C895.475 535.987 895.442 535.651 895.507 535.327C895.571 535.003 895.73 534.706 895.964 534.472L917.806 512.63C918.119 512.317 918.543 512.141 918.986 512.141C919.429 512.141 919.854 512.317 920.167 512.63C920.48 512.943 920.656 513.368 920.656 513.811C920.656 514.254 920.48 514.679 920.167 514.992L898.325 536.834C898.171 536.989 897.986 537.112 897.784 537.196C897.581 537.28 897.364 537.323 897.144 537.323Z" fill="#E3EBF5"/>
<path d="M345.989 86.5261H319.266C317.273 86.5239 315.363 85.7314 313.954 84.3224C312.545 82.9135 311.752 81.0032 311.75 79.0107V17.2169C311.752 15.2243 312.545 13.314 313.954 11.9051C315.363 10.4962 317.273 9.70363 319.266 9.70142H345.989C347.981 9.70363 349.892 10.4962 351.301 11.9051C352.71 13.314 353.502 15.2243 353.504 17.2169V79.0107C353.502 81.0032 352.71 82.9135 351.301 84.3224C349.892 85.7314 347.981 86.5239 345.989 86.5261Z" fill="#E3EBF5"/>
<path d="M451.209 662.711H314.255C310.491 662.707 306.883 661.21 304.221 658.549C301.56 655.888 300.063 652.279 300.059 648.516V95.7117C300.063 91.9481 301.56 88.3398 304.221 85.6784C306.883 83.0171 310.491 81.5201 314.255 81.5159H451.209C454.973 81.5201 458.582 83.0171 461.243 85.6784C463.905 88.3397 465.402 91.948 465.406 95.7117V648.516C465.402 652.279 463.905 655.888 461.243 658.549C458.582 661.21 454.973 662.707 451.209 662.711Z" fill="#E3EBF5"/>
<path d="M369.369 662.711H232.415C228.651 662.707 225.043 661.21 222.381 658.549C219.72 655.888 218.223 652.279 218.219 648.516V95.7117C218.223 91.9481 219.72 88.3398 222.381 85.6784C225.043 83.0171 228.651 81.5201 232.415 81.5159H369.369C373.133 81.5201 376.742 83.0171 379.403 85.6784C382.065 88.3398 383.562 91.9481 383.566 95.7117V648.516C383.562 652.279 382.065 655.888 379.403 658.549C376.742 661.21 373.133 662.707 369.369 662.711Z" fill="#EDF1F8"/>
<path d="M320.936 86.5261H294.213C292.22 86.5239 290.31 85.7314 288.901 84.3224C287.492 82.9135 286.699 81.0032 286.697 79.0107V17.2169C286.699 15.2243 287.492 13.314 288.901 11.9051C290.31 10.4962 292.22 9.70363 294.213 9.70142H320.936C322.928 9.70363 324.839 10.4962 326.248 11.9051C327.657 13.314 328.449 15.2243 328.452 17.2169V79.0107C328.449 81.0032 327.657 82.9135 326.248 84.3224C324.839 85.7314 322.928 86.5239 320.936 86.5261Z" fill="#EDF1F8"/>
<path d="M285.862 206.773H254.129C253.022 206.772 251.96 206.332 251.177 205.549C250.395 204.766 249.954 203.705 249.953 202.598V154.165C249.954 153.058 250.395 151.997 251.177 151.214C251.96 150.432 253.022 149.991 254.129 149.99H285.862C286.969 149.991 288.03 150.432 288.813 151.214C289.596 151.997 290.036 153.058 290.037 154.165V202.598C290.036 203.705 289.596 204.766 288.813 205.549C288.03 206.332 286.969 206.772 285.862 206.773Z" fill="white"/>
<path d="M347.659 206.773H315.925C314.818 206.772 313.757 206.332 312.974 205.549C312.192 204.766 311.751 203.705 311.75 202.598V154.165C311.751 153.058 312.192 151.997 312.974 151.214C313.757 150.432 314.818 149.991 315.925 149.99H347.659C348.766 149.991 349.827 150.432 350.61 151.214C351.393 151.997 351.833 153.058 351.834 154.165V202.598C351.833 203.705 351.393 204.766 350.61 205.549C349.827 206.332 348.766 206.772 347.659 206.773Z" fill="white"/>
<path d="M285.862 295.289H254.129C253.022 295.288 251.96 294.847 251.177 294.065C250.395 293.282 249.954 292.221 249.953 291.114V242.681C249.954 241.574 250.395 240.512 251.177 239.73C251.96 238.947 253.022 238.507 254.129 238.505H285.862C286.969 238.507 288.03 238.947 288.813 239.73C289.596 240.512 290.036 241.574 290.037 242.681V291.114C290.036 292.221 289.596 293.282 288.813 294.065C288.03 294.847 286.969 295.288 285.862 295.289Z" fill="white"/>
<path d="M347.659 295.289H315.925C314.818 295.288 313.757 294.847 312.974 294.065C312.192 293.282 311.751 292.221 311.75 291.114V242.681C311.751 241.574 312.192 240.512 312.974 239.73C313.757 238.947 314.818 238.507 315.925 238.505H347.659C348.766 238.507 349.827 238.947 350.61 239.73C351.393 240.512 351.833 241.574 351.834 242.681V291.114C351.833 292.221 351.393 293.282 350.61 294.065C349.827 294.847 348.766 295.288 347.659 295.289Z" fill="white"/>
<path d="M285.862 383.804H254.129C253.022 383.803 251.96 383.363 251.177 382.58C250.395 381.797 249.954 380.736 249.953 379.629V331.196C249.954 330.089 250.395 329.028 251.177 328.245C251.96 327.463 253.022 327.022 254.129 327.021H285.862C286.969 327.022 288.03 327.463 288.813 328.245C289.596 329.028 290.036 330.089 290.037 331.196V379.629C290.036 380.736 289.596 381.797 288.813 382.58C288.03 383.363 286.969 383.803 285.862 383.804Z" fill="white"/>
<path d="M347.659 383.804H315.925C314.818 383.803 313.757 383.363 312.974 382.58C312.192 381.797 311.751 380.736 311.75 379.629V331.196C311.751 330.089 312.192 329.028 312.974 328.245C313.757 327.463 314.818 327.022 315.925 327.021H347.659C348.766 327.022 349.827 327.463 350.61 328.245C351.393 329.028 351.833 330.089 351.834 331.196V379.629C351.833 380.736 351.393 381.797 350.61 382.58C349.827 383.363 348.766 383.803 347.659 383.804Z" fill="white"/>
<path d="M285.862 472.32H254.129C253.022 472.319 251.96 471.878 251.177 471.096C250.395 470.313 249.954 469.252 249.953 468.145V419.712C249.954 418.605 250.395 417.543 251.177 416.761C251.96 415.978 253.022 415.538 254.129 415.536H285.862C286.969 415.538 288.03 415.978 288.813 416.761C289.596 417.543 290.036 418.605 290.037 419.712V468.145C290.036 469.252 289.596 470.313 288.813 471.096C288.03 471.878 286.969 472.319 285.862 472.32Z" fill="white"/>
<path d="M347.659 472.32H315.925C314.818 472.319 313.757 471.878 312.974 471.096C312.192 470.313 311.751 469.252 311.75 468.145V419.712C311.751 418.605 312.192 417.543 312.974 416.761C313.757 415.978 314.818 415.538 315.925 415.536H347.659C348.766 415.538 349.827 415.978 350.61 416.761C351.393 417.543 351.833 418.605 351.834 419.712V468.145C351.833 469.252 351.393 470.313 350.61 471.096C349.827 471.878 348.766 472.319 347.659 472.32Z" fill="white"/>
<path d="M285.862 560.835H254.129C253.022 560.834 251.96 560.394 251.177 559.611C250.395 558.828 249.954 557.767 249.953 556.66V508.227C249.954 507.12 250.395 506.059 251.177 505.276C251.96 504.493 253.022 504.053 254.129 504.052H285.862C286.969 504.053 288.03 504.493 288.813 505.276C289.596 506.059 290.036 507.12 290.037 508.227V556.66C290.036 557.767 289.596 558.828 288.813 559.611C288.03 560.394 286.969 560.834 285.862 560.835Z" fill="white"/>
<path d="M347.659 560.835H315.925C314.818 560.834 313.757 560.394 312.974 559.611C312.192 558.828 311.751 557.767 311.75 556.66V508.227C311.751 507.12 312.192 506.059 312.974 505.276C313.757 504.493 314.818 504.053 315.925 504.052H347.659C348.766 504.053 349.827 504.493 350.61 505.276C351.393 506.059 351.833 507.12 351.834 508.227V556.66C351.833 557.767 351.393 558.828 350.61 559.611C349.827 560.394 348.766 560.834 347.659 560.835Z" fill="white"/>
<path d="M1035.77 378.794H1009.05C1007.05 378.792 1005.14 377.999 1003.74 376.59C1002.33 375.181 1001.53 373.271 1001.53 371.279V336.206C1001.53 334.214 1002.33 332.304 1003.74 330.895C1005.14 329.486 1007.05 328.693 1009.05 328.691H1035.77C1037.76 328.693 1039.67 329.486 1041.08 330.895C1042.49 332.304 1043.28 334.214 1043.29 336.206V371.279C1043.28 373.271 1042.49 375.181 1041.08 376.59C1039.67 377.999 1037.76 378.792 1035.77 378.794Z" fill="#E3EBF5"/>
<path d="M1261.24 664.382H1124.29C1120.52 664.377 1116.92 662.88 1114.25 660.219C1111.59 657.558 1110.1 653.949 1110.09 650.186V384.639C1110.1 380.876 1111.59 377.267 1114.25 374.606C1116.92 371.945 1120.52 370.448 1124.29 370.444H1261.24C1265.01 370.448 1268.61 371.945 1271.28 374.606C1273.94 377.267 1275.43 380.876 1275.44 384.639V650.186C1275.43 653.949 1273.94 657.558 1271.28 660.219C1268.61 662.88 1265.01 664.377 1261.24 664.382Z" fill="#E3EBF5"/>
<path d="M1179.4 664.382H942.239C938.476 664.377 934.867 662.88 932.206 660.219C929.544 657.558 928.047 653.949 928.043 650.186V384.639C928.047 380.876 929.544 377.267 932.206 374.606C934.867 371.945 938.476 370.448 942.239 370.444H1179.4C1183.17 370.448 1186.78 371.945 1189.44 374.606C1192.1 377.267 1193.6 380.876 1193.6 384.639V650.186C1193.6 653.949 1192.1 657.558 1189.44 660.219C1186.78 662.88 1183.17 664.377 1179.4 664.382Z" fill="#EDF1F8"/>
<path d="M1010.72 378.794H983.994C982.002 378.792 980.091 377.999 978.682 376.59C977.273 375.181 976.481 373.271 976.479 371.279V336.206C976.481 334.214 977.273 332.304 978.682 330.895C980.091 329.486 982.002 328.693 983.994 328.691H1010.72C1012.71 328.693 1014.62 329.486 1016.03 330.895C1017.44 332.304 1018.23 334.214 1018.23 336.206V371.279C1018.23 373.271 1017.44 375.181 1016.03 376.59C1014.62 377.999 1012.71 378.792 1010.72 378.794Z" fill="#EDF1F8"/>
<path d="M1045.79 501.547H1014.06C1012.95 501.545 1011.89 501.105 1011.11 500.322C1010.32 499.54 1009.88 498.478 1009.88 497.371V448.938C1009.88 447.831 1010.32 446.77 1011.11 445.988C1011.89 445.205 1012.95 444.764 1014.06 444.763H1045.79C1046.9 444.764 1047.96 445.205 1048.74 445.988C1049.52 446.77 1049.96 447.831 1049.97 448.938V497.371C1049.96 498.478 1049.52 499.54 1048.74 500.322C1047.96 501.105 1046.9 501.545 1045.79 501.547Z" fill="white"/>
<path d="M1107.59 501.547H1075.85C1074.75 501.545 1073.68 501.105 1072.9 500.322C1072.12 499.54 1071.68 498.478 1071.68 497.371V448.938C1071.68 447.831 1072.12 446.77 1072.9 445.988C1073.68 445.205 1074.75 444.764 1075.85 444.763H1107.59C1108.69 444.764 1109.75 445.205 1110.54 445.988C1111.32 446.77 1111.76 447.831 1111.76 448.938V497.371C1111.76 498.478 1111.32 499.54 1110.54 500.322C1109.75 501.105 1108.69 501.545 1107.59 501.547Z" fill="white"/>
<path d="M1045.79 590.062H1014.06C1012.95 590.061 1011.89 589.62 1011.11 588.838C1010.32 588.055 1009.88 586.994 1009.88 585.887V537.454C1009.88 536.347 1010.32 535.286 1011.11 534.503C1011.89 533.72 1012.95 533.28 1014.06 533.279H1045.79C1046.9 533.28 1047.96 533.72 1048.74 534.503C1049.52 535.286 1049.96 536.347 1049.97 537.454V585.887C1049.96 586.994 1049.52 588.055 1048.74 588.838C1047.96 589.62 1046.9 590.061 1045.79 590.062Z" fill="white"/>
<path d="M1107.59 590.062H1075.85C1074.75 590.061 1073.68 589.62 1072.9 588.838C1072.12 588.055 1071.68 586.994 1071.68 585.887V537.454C1071.68 536.347 1072.12 535.286 1072.9 534.503C1073.68 533.72 1074.75 533.28 1075.85 533.279H1107.59C1108.69 533.28 1109.75 533.72 1110.54 534.503C1111.32 535.286 1111.76 536.347 1111.76 537.454V585.887C1111.76 586.994 1111.32 588.055 1110.54 588.838C1109.75 589.62 1108.69 590.061 1107.59 590.062Z" fill="white"/>
<path d="M566.45 543.965C566.45 514.469 542.521 444.476 513.004 444.476C483.487 444.476 459.559 514.469 459.559 543.965C459.559 558.139 465.189 571.732 475.212 581.755C485.235 591.777 498.83 597.408 513.004 597.408C527.179 597.408 540.773 591.777 550.796 581.755C560.819 571.732 566.45 558.139 566.45 543.965H566.45Z" fill="#E3EBF5"/>
<path d="M553.088 543.965C553.088 514.469 529.16 444.476 499.643 444.476C470.126 444.476 446.197 514.469 446.197 543.965C446.197 558.139 451.828 571.732 461.851 581.755C471.874 591.777 485.468 597.408 499.643 597.408C513.818 597.408 527.412 591.777 537.435 581.755C547.458 571.732 553.088 558.139 553.088 543.965H553.088Z" fill="#EDF1F8"/>
<path d="M501.315 663.461C500.872 663.461 500.447 663.285 500.134 662.972C499.821 662.659 499.645 662.234 499.645 661.791V512.917C499.645 512.474 499.82 512.049 500.134 511.736C500.447 511.423 500.872 511.247 501.315 511.247C501.758 511.247 502.182 511.423 502.496 511.736C502.809 512.049 502.985 512.474 502.985 512.917V661.791C502.985 662.234 502.809 662.659 502.496 662.972C502.182 663.285 501.758 663.461 501.315 663.461Z" fill="#E3EBF5"/>
<path d="M501.314 537.323C500.984 537.323 500.661 537.225 500.387 537.041C500.112 536.858 499.898 536.597 499.772 536.292C499.645 535.987 499.612 535.651 499.677 535.327C499.741 535.003 499.9 534.706 500.134 534.472L521.975 512.63C522.289 512.317 522.713 512.141 523.156 512.141C523.599 512.141 524.024 512.317 524.337 512.63C524.65 512.943 524.826 513.368 524.826 513.811C524.826 514.254 524.65 514.679 524.337 514.992L502.495 536.834C502.34 536.989 502.156 537.112 501.954 537.196C501.751 537.28 501.534 537.323 501.314 537.323Z" fill="#E3EBF5"/>
<path d="M1419.91 543.965C1419.91 514.469 1395.98 444.476 1366.46 444.476C1336.95 444.476 1313.02 514.469 1313.02 543.965C1313.02 558.139 1318.65 571.732 1328.67 581.755C1338.69 591.777 1352.29 597.408 1366.46 597.408C1380.64 597.408 1394.23 591.777 1404.25 581.755C1414.28 571.732 1419.91 558.139 1419.91 543.965H1419.91Z" fill="#E3EBF5"/>
<path d="M1406.55 543.965C1406.55 514.469 1382.62 444.476 1353.1 444.476C1323.58 444.476 1299.66 514.469 1299.66 543.965C1299.66 558.139 1305.29 571.732 1315.31 581.755C1325.33 591.777 1338.93 597.408 1353.1 597.408C1367.28 597.408 1380.87 591.777 1390.89 581.755C1400.92 571.732 1406.55 558.139 1406.55 543.965H1406.55Z" fill="#EDF1F8"/>
<path d="M1354.77 663.461C1354.33 663.461 1353.9 663.285 1353.59 662.972C1353.28 662.659 1353.1 662.234 1353.1 661.791V512.917C1353.1 512.474 1353.28 512.049 1353.59 511.736C1353.9 511.423 1354.33 511.247 1354.77 511.247C1355.21 511.247 1355.64 511.423 1355.95 511.736C1356.27 512.049 1356.44 512.474 1356.44 512.917V661.791C1356.44 662.234 1356.27 662.659 1355.95 662.972C1355.64 663.285 1355.21 663.461 1354.77 663.461Z" fill="#E3EBF5"/>
<path d="M1354.77 537.323C1354.44 537.323 1354.12 537.225 1353.84 537.041C1353.57 536.858 1353.36 536.597 1353.23 536.292C1353.1 535.987 1353.07 535.651 1353.13 535.327C1353.2 535.003 1353.36 534.706 1353.59 534.472L1375.43 512.63C1375.75 512.317 1376.17 512.141 1376.61 512.141C1377.06 512.141 1377.48 512.317 1377.79 512.63C1378.11 512.943 1378.28 513.368 1378.28 513.811C1378.28 514.254 1378.11 514.679 1377.79 514.992L1355.95 536.834C1355.8 536.989 1355.61 537.112 1355.41 537.196C1355.21 537.28 1354.99 537.323 1354.77 537.323Z" fill="#E3EBF5"/>
<path d="M801.945 562.505H765.201C764.094 562.504 763.032 562.064 762.249 561.281C761.467 560.499 761.026 559.437 761.025 558.33V521.588C761.026 520.481 761.467 519.419 762.249 518.637C763.032 517.854 764.094 517.414 765.201 517.413H801.945C803.052 517.414 804.113 517.854 804.896 518.637C805.679 519.419 806.119 520.481 806.12 521.588V558.33C806.119 559.437 805.679 560.499 804.896 561.281C804.113 562.064 803.052 562.504 801.945 562.505Z" fill="#DDE8F0"/>
</svg>
