<svg width="1420" height="1254" viewBox="0 0 1420 1254" fill="none" xmlns="http://www.w3.org/2000/svg">
<g clip-path="url(#clip0_356_3)">
<rect width="1420" height="1254" fill="#F7FAFC"/>
<path d="M1144.99 1176C1147.87 1176.39 1150.82 1176.84 1153.7 1177.22C1153.64 1178.05 1153.51 1178.95 1153.44 1179.78C1063.8 1179.78 974.101 1179.78 884.141 1179.78C882.924 1173.38 881.963 1168.25 890.997 1166.78C893.816 1166.33 895.739 1160.18 898.814 1155.5C944.435 1155.5 991.786 1155.5 1040.42 1155.5C1040.42 1152.55 1040.42 1150.18 1040.42 1147.75C1040.16 1118.27 1040.1 1088.8 1039.58 1059.33C1039.46 1054.14 1037.73 1048.82 1036.06 1043.82C1035.55 1042.28 1032.92 1040.55 1031.13 1040.42C1023.5 1040.04 1015.88 1040.3 1007.42 1040.3C1007.42 1076.24 1007.42 1111.48 1007.42 1147.24C1003.7 1147.24 1000.76 1147.24 997.232 1147.24C997.232 1111.42 997.232 1075.41 997.232 1038.89C999.154 1038.5 1001.33 1038.12 1004.73 1037.48C1004.73 1034.46 1004.73 1031.26 1004.73 1028.06C1004.79 1017.16 1004.79 1017.16 1015.36 1017.04C1022.03 1016.97 1028.69 1017.04 1036.96 1017.04C1036.96 1022.35 1036.64 1027.61 1037.15 1032.8C1037.34 1034.66 1039.39 1036.39 1040.55 1038.12C1041.64 1036.45 1043.56 1034.85 1043.69 1033.18C1044.07 1026.14 1043.81 1019.02 1043.81 1011.21C1030.36 1011.21 1018.12 1011.21 1005.11 1011.21C1005.11 1003.13 1005.11 995.828 1005.11 987.755C1000.12 987.755 995.886 987.755 990.824 987.755C990.504 983.077 990.184 979.169 989.863 974.62C984.481 974.62 979.227 974.62 972.948 974.62C972.756 977.054 972.435 979.682 972.435 982.373C972.307 1005.7 972.307 1029.02 972.051 1052.34C972.051 1055.48 973.845 1059.71 968.014 1060.61C967.181 1060.74 966.604 1065.09 966.604 1067.46C966.476 1088.22 966.54 1108.98 966.54 1129.74C966.54 1132.24 966.54 1134.8 966.54 1137.88C962.952 1137.88 960.069 1137.88 954.879 1137.88C954.879 1067.53 954.879 997.046 954.879 926.052C912.526 926.052 872.416 926.052 831.216 926.052C831.216 931.306 831.216 936.303 831.216 941.301C831.216 1013.06 831.088 1084.83 831.28 1156.59C831.28 1162.23 829.998 1164.66 824.104 1164.28C818.786 1163.89 813.403 1164.21 807.38 1164.21C807.124 1166.97 806.868 1169.08 806.547 1172.22C826.987 1172.22 846.786 1172.22 866.905 1172.22C866.905 1175.43 866.905 1177.67 866.905 1180.75C852.553 1180.75 838.52 1180.75 824.488 1180.75C802.19 1180.75 779.893 1180.87 757.595 1180.62C755.288 1180.62 752.982 1178.31 750.675 1177.09C752.917 1175.75 755.032 1173.51 757.403 1173.31C766.309 1172.48 775.279 1172.29 784.314 1171.13C777.266 1170.56 770.217 1169.92 762.593 1169.28C762.593 1163.7 762.593 1158.45 762.593 1152.87C781.494 1149.48 800.076 1146.21 819.17 1142.75C819.17 1118.85 819.298 1095.59 818.914 1072.27C818.914 1070.79 815.518 1068.17 813.596 1068.1C803.087 1067.72 792.579 1067.91 782.071 1067.91C779.572 1067.91 777.073 1067.91 774.574 1067.91C774.126 1067.08 773.677 1066.31 773.229 1065.48C776.304 1063.23 779.06 1060.09 782.456 1059.01C786.172 1057.85 790.465 1058.75 795.591 1058.75C795.591 1046.57 795.591 1034.91 795.591 1023C801.165 1022.68 805.65 1022.42 810.776 1022.1C810.776 1008.84 810.776 995.956 810.776 982.757C799.627 979.746 790.144 983.077 782.456 988.652C776.497 1008.64 779.7 1028.38 777.778 1048.24C768.68 1048.69 759.966 1049.07 751.251 1049.46C750.931 1050.29 750.547 1051.19 750.226 1052.02C760.222 1051.12 766.95 1053.49 764.194 1063.87C775.728 1069.45 768.295 1078.74 771.179 1086.81C764.13 1086.81 758.364 1086.81 752.084 1086.81C751.572 1090.79 751.187 1093.99 750.739 1097.83C746.894 1098.03 743.178 1098.22 738.565 1098.41C738.565 1086.62 738.565 1075.22 738.565 1063.55C729.659 1062.53 721.521 1061.63 713.384 1060.74C713.32 1059.52 713.32 1058.3 713.256 1057.08C721.137 1056.25 729.082 1055.48 738.373 1054.52C738.373 1045.61 738.373 1036.26 738.373 1026.9C738.309 1018.19 738.18 1009.48 738.18 1000.76C738.18 995.828 738.501 991.215 733.439 987.883C731.965 986.922 731.837 983.27 731.773 980.899C731.709 968.084 731.453 955.269 732.029 942.454C732.67 928.935 725.237 918.299 720.56 905.035C717.356 912.468 714.089 918.106 712.487 924.257C710.308 932.523 705.438 936.752 697.237 937.713C695.251 937.969 693.264 938.674 690.83 939.251C690.381 936.624 689.933 934.253 689.484 931.882C689.292 931.882 689.164 931.946 688.971 931.946C688.971 934.894 688.971 937.777 688.971 941.622C694.738 940.596 700.313 939.571 706.271 938.546C706.271 978.977 706.271 1018.83 706.271 1058.68C705.759 1058.68 705.246 1058.68 704.67 1058.68C704.67 1019.92 704.67 981.219 704.67 941.429C699.864 942.262 695.635 942.198 692.175 943.864C690.253 944.761 688.715 948.477 688.715 950.912C688.587 977.311 688.779 1003.71 688.843 1030.11C688.843 1033.82 688.843 1037.54 688.843 1042.73C682.116 1037.48 677.118 1033.89 677.31 1025.56C677.759 1000.19 677.374 974.812 677.566 949.439C677.566 947.452 679.296 944.633 681.026 943.672C687.241 940.276 687.818 935.214 682.051 930.601C681.219 929.896 680.129 928.102 680.386 927.717C681.154 926.692 682.5 925.539 683.717 925.411C686.216 925.219 688.715 925.603 691.47 925.795C691.663 927.781 691.855 929.255 691.983 930.793C692.111 932.331 692.239 933.804 692.431 935.663C701.146 935.15 706.656 932.459 710.436 923.553C716.972 908.303 721.457 892.989 719.535 876.074C720.368 876.074 721.137 876.074 721.97 876.138C722.098 878.316 722.546 880.495 722.354 882.673C721.201 896.257 724.148 908.816 729.402 921.438C732.606 929.127 733.503 938.097 734.08 946.619C734.784 956.038 733.951 965.585 733.823 975.068C733.759 980.643 732.798 986.345 738.821 990.061C740.039 990.83 740.487 993.714 740.487 995.572C740.615 1014.28 740.423 1032.99 740.615 1051.7C740.679 1056.83 738.885 1058.56 733.887 1058.11C729.402 1057.72 724.789 1058.04 720.24 1058.04C720.24 1058.75 720.24 1059.45 720.24 1060.09C723.251 1060.09 726.263 1060.09 729.21 1060.09C742.153 1060.16 740.359 1059.26 740.487 1071.88C740.551 1078.8 740.487 1085.66 740.487 1092.58C740.487 1093.54 740.871 1094.57 741.128 1095.85C743.499 1095.98 745.677 1096.04 748.24 1096.17C748.496 1092.39 748.753 1089.18 749.009 1085.02C755.032 1085.02 760.991 1085.02 767.718 1085.02C767.718 1079.25 767.718 1074.32 767.718 1068.81C758.812 1068.55 762.272 1060.67 760.67 1055.99C755.352 1054.71 750.418 1053.56 745.421 1052.34C745.421 1051.32 745.485 1050.36 745.485 1049.33C754.647 1045.04 764.835 1046.7 776.689 1045.61C776.689 1027.03 776.689 1008.45 776.689 989.485C786.749 980.771 798.666 977.823 812.57 980.45C812.57 994.611 812.57 1009.09 812.57 1024.28C808.085 1024.47 803.536 1024.66 798.154 1024.92C798.154 1036.58 798.154 1048.24 798.154 1060.35C790.849 1061.12 784.314 1061.76 777.778 1062.47C777.906 1063.49 778.034 1064.45 778.099 1065.48C792.003 1065.48 805.843 1065.48 820.323 1065.48C820.516 1068.87 820.772 1071.37 820.772 1073.87C820.772 1095.4 820.58 1116.93 820.836 1138.46C820.9 1143.71 819.17 1145.38 814.044 1146.15C797.385 1148.71 780.854 1151.85 764.13 1154.8C764.13 1159.09 764.13 1162.61 764.13 1166.33C773.998 1169.53 785.083 1165.43 794.309 1170.69C794.245 1171.58 794.245 1172.54 794.181 1173.44C780.533 1174.21 766.95 1175.04 753.302 1175.81C753.366 1176.45 753.43 1177.03 753.43 1177.67C790.144 1177.67 826.859 1177.67 863.573 1177.67C863.637 1176.9 863.637 1176.2 863.702 1175.43C843.967 1175.43 824.232 1175.43 804.177 1175.43C804.177 1170.37 804.177 1166.84 804.177 1162.55C811.994 1162.04 819.811 1161.52 828.269 1160.95C828.269 1081.82 828.269 1003 828.269 923.617C870.622 923.617 912.27 923.617 954.687 923.617C954.943 926.884 955.456 930.344 955.456 933.804C956.16 998.135 956.801 1062.47 957.506 1126.8C957.506 1128.08 957.122 1129.55 957.634 1130.58C958.531 1132.5 959.941 1134.16 961.094 1135.96C961.991 1134.16 963.593 1132.37 963.593 1130.58C963.785 1109.05 963.657 1087.52 963.785 1065.99C963.785 1062.47 962.311 1058.3 967.95 1056.83C968.975 1056.57 969.296 1052.28 969.36 1049.84C969.552 1025.49 969.616 1001.15 969.744 976.798C969.744 975.517 969.936 974.299 970.064 972.377C976.984 972.377 983.712 972.377 991.209 972.377C991.529 976.157 991.914 980.066 992.298 984.359C996.911 984.615 1001.14 984.872 1006.33 985.192C1006.33 992.945 1006.33 1000.51 1006.33 1008.9C1019.66 1008.9 1032.02 1008.9 1044.9 1008.9C1044.9 1019.41 1044.9 1029.08 1044.9 1039.4C1042.79 1039.85 1040.48 1040.3 1038.69 1040.68C1044.65 1079.38 1040.55 1118.02 1042.6 1157.36C994.092 1157.36 946.549 1157.36 898.045 1157.36C898.366 1166.2 894.265 1170.62 885.743 1170.43C885.743 1173.19 885.743 1175.3 885.743 1177.8C888.114 1177.93 890.164 1178.12 892.15 1178.12C975.19 1178.25 1058.23 1178.31 1141.27 1178.31C1142.94 1178.31 1144.67 1177.29 1146.33 1176.77C1146.2 1176.58 1146.08 1176.26 1145.88 1176.2C1145.44 1176 1144.99 1175.94 1144.54 1175.88C1145.11 1175.94 1144.99 1176 1144.99 1176ZM686.473 945.914C679.681 944.825 679.937 948.477 679.937 952.322C679.937 977.119 679.681 1001.92 680.065 1026.71C680.129 1030.11 683.205 1033.5 684.935 1036.84C685.447 1036.45 685.96 1036.13 686.473 1035.75C686.473 1006.02 686.473 976.157 686.473 945.914ZM1007.8 1019.98C1007.8 1026.58 1007.8 1032.09 1007.8 1037.48C1017.03 1037.48 1025.74 1037.48 1034.2 1037.48C1034.2 1031.26 1034.2 1025.75 1034.2 1019.98C1025.1 1019.98 1016.65 1019.98 1007.8 1019.98ZM1004.86 1092.9C1004.79 1092.9 1004.79 1092.9 1004.86 1092.9C1004.86 1077.59 1004.92 1062.21 1004.66 1046.9C1004.6 1044.72 1002.74 1042.6 1001.72 1040.49C1000.88 1042.6 999.282 1044.72 999.282 1046.77C999.09 1077.71 999.09 1108.66 999.282 1139.55C999.282 1141.6 1001.01 1143.58 1001.91 1145.63C1002.87 1143.65 1004.66 1141.66 1004.66 1139.67C1004.92 1124.1 1004.86 1108.47 1004.86 1092.9Z" fill="#E9F3FA"/>
<path d="M258.649 1179.91C258.649 1173.51 258.649 1168 258.649 1162.42C259.034 1162.42 259.418 1162.36 259.803 1162.36C260.123 1167.29 260.443 1172.22 260.764 1177.8C306.577 1177.8 352.005 1177.8 398.011 1177.8C398.011 1160.75 398.011 1144.03 398.011 1126.28C370.971 1126.28 344.252 1126.28 317.085 1126.28C317.085 1101.36 317.085 1077.39 317.085 1052.79C324.646 1052.79 332.142 1052.79 340.664 1052.79C340.664 1059.97 340.664 1067.21 340.664 1074.51C341.561 1074.9 342.458 1075.34 343.419 1075.73C344.893 1073.29 347.392 1070.99 347.52 1068.49C348.033 1059.58 347.712 1050.61 347.712 1040.94C355.465 1040.94 362.642 1040.94 370.587 1040.94C370.587 1053.05 370.587 1064.96 370.587 1076.75C375.52 1079.06 377.955 1078.29 377.763 1072.97C377.635 1068.87 377.635 1064.77 377.635 1060.67C377.635 1059.13 377.25 1056.7 377.955 1056.25C387.759 1050.23 381.928 1040.81 382.889 1032.99C383.85 1025.43 383.081 1017.68 383.081 1009.28C396.665 1009.28 409.8 1009.28 423.96 1009.28C423.96 1065.41 423.96 1121.35 423.96 1177.73C462.02 1177.73 499.055 1177.73 536.411 1177.73C536.411 1174.98 536.411 1172.54 536.411 1169.21C533.271 1169.21 530.516 1169.21 527.76 1169.21C498.799 1169.21 469.838 1169.28 440.876 1169.28C437.16 1169.28 432.482 1170.11 434.661 1162.55C455.998 1162.55 477.655 1162.55 499.76 1162.55C499.76 1132.95 499.76 1104.37 499.76 1075.15C497.902 1074.9 495.98 1074.38 494.058 1074.38C476.886 1074.32 459.714 1073.81 442.542 1074.51C434.725 1074.83 432.995 1072.14 434.661 1064.64C455.998 1064.64 477.398 1064.64 499.504 1064.64C499.504 1036.13 499.504 1008.39 499.504 979.617C474.131 979.617 448.437 979.617 422.038 979.617C421.846 976.35 421.718 973.979 421.526 971.16C450.231 971.16 478.359 971.16 508.026 971.16C508.026 979.746 508.602 988.396 507.898 996.917C507.193 1005.12 509.499 1010.18 518.149 1011.21C519.623 1011.4 520.969 1012.3 523.403 1013.26C521.161 1024.85 518.854 1036.52 516.483 1048.5C519.111 1048.95 521.289 1049.39 524.685 1049.97C523.852 1075.86 523.019 1101.93 522.186 1128.01C523.339 1128.08 524.493 1128.08 525.582 1128.14C525.71 1125.83 526.031 1123.53 526.031 1121.16C526.031 1111.16 525.966 1101.17 525.966 1091.17C525.966 1088.03 524.813 1084.19 530.195 1083.99C530.836 1083.99 531.797 1081.24 531.925 1079.7C532.182 1076.43 531.989 1073.17 531.989 1069.39C535.257 1069.06 537.884 1068.81 540.319 1068.55C544.676 1056.7 534.296 1041.77 550.186 1031.52C550.186 1060.8 550.186 1088.67 550.186 1116.61C550.699 1116.61 551.276 1116.61 551.788 1116.61C553.262 1084.12 554.8 1051.7 556.273 1018.64C569.152 1018.64 581.583 1018.64 594.974 1018.64C594.013 1023.19 593.116 1027.54 592.091 1032.48C595.166 1033.89 598.306 1035.3 602.15 1037.03C600.164 1047.22 598.242 1057.4 596.128 1068.36C601.446 1068.74 606.123 1069.06 611.249 1069.45C610.929 1071.88 610.608 1073.81 610.288 1076.5C602.343 1076.5 594.462 1076.5 586.773 1076.5C586.773 1110.58 586.773 1143.97 586.773 1177.67C595.487 1177.67 602.855 1177.67 611.634 1177.67C611.634 1159.09 611.634 1140.57 611.634 1121.09C615.926 1121.61 618.618 1121.93 621.373 1122.25C613.684 1128.21 617.272 1135.57 617.144 1141.92C616.823 1153.64 617.08 1165.37 617.08 1177.61C626.627 1177.61 634.38 1177.61 642.902 1177.61C642.902 1160.63 642.902 1143.84 642.902 1126.41C665.712 1126.41 687.818 1126.41 710.628 1126.41C711.012 1134.04 711.205 1141.66 711.717 1149.22C712.166 1156.33 709.731 1164.28 718.125 1169.98C718.125 1140.83 718.125 1112.19 718.125 1083.03C690.701 1083.03 663.918 1083.03 636.11 1083.03C635.341 1094.05 634.572 1105.07 633.675 1117.44C623.936 1111.35 618.553 1098.86 604.842 1103.34C604.842 1094.95 604.842 1087.65 604.842 1079.38C608.43 1079.77 611.569 1080.09 615.734 1080.53C616.375 1076.31 617.208 1070.67 618.105 1065.03C618.618 1065.03 619.13 1064.96 619.643 1064.96C620.412 1067.98 621.18 1071.05 621.949 1074.06C622.206 1074.06 622.462 1074.06 622.718 1074.06C622.718 1057.02 622.718 1039.91 622.718 1022.1C627.139 1021.78 630.792 1021.52 634.188 1021.27C637.583 1017.04 631.304 1006.02 644.119 1009.03C644.824 1012.81 645.593 1016.78 646.426 1021.07C649.053 1021.39 651.744 1021.71 655.268 1022.16C655.268 1028.19 655.268 1034.27 655.268 1040.3C655.524 1040.3 655.78 1040.3 656.037 1040.3C656.613 1034.59 657.126 1028.83 657.703 1023.25C669.236 1022.55 669.236 1022.55 671.671 1036.13C674.042 1036.32 676.476 1036.45 680.257 1036.77C680.257 1044.4 680.257 1052.09 680.257 1059.71C680.769 1059.71 681.282 1059.71 681.795 1059.77C683.268 1055.93 683.653 1050.8 686.408 1048.63C689.74 1046 694.994 1045.81 699.479 1044.84C699.928 1044.72 700.825 1046.7 701.914 1048.3C690.893 1046.32 686.408 1050.23 685.575 1062.4C683.396 1062.53 681.09 1062.59 677.758 1062.72C677.758 1054.39 677.758 1046.83 677.758 1038.95C674.618 1038.95 672.376 1038.95 669.556 1038.95C668.98 1034.72 668.467 1030.75 667.826 1026.2C665.52 1025.75 663.085 1025.3 659.625 1024.6C659.625 1039.21 659.753 1052.98 659.497 1066.76C659.433 1069 657.575 1071.18 656.613 1073.36C655.716 1071.05 654.115 1068.74 654.115 1066.44C653.858 1052.66 653.986 1038.82 653.986 1024.66C650.526 1024.28 647.835 1024.02 644.824 1023.7C643.671 1019.22 642.581 1014.73 641.492 1010.24C640.723 1010.37 639.954 1010.44 639.185 1010.57C638.48 1014.92 637.84 1019.28 637.135 1023.7C633.098 1024.02 629.574 1024.28 625.73 1024.53C625.73 1048.3 625.73 1071.76 625.73 1095.21C625.217 1095.34 624.705 1095.46 624.192 1095.59C622.782 1089.82 621.373 1084.06 619.963 1078.29C619.643 1078.36 619.322 1078.42 619.066 1078.55C618.297 1084.31 617.528 1090.15 616.759 1095.91C616.183 1096.04 615.67 1096.1 615.093 1096.23C614.26 1092.58 613.684 1088.93 612.595 1085.34C612.146 1083.93 610.736 1082.84 609.775 1081.56C608.75 1082.97 607.276 1084.31 606.892 1085.92C606.379 1088.09 606.956 1090.53 606.7 1092.77C606.123 1098.41 607.533 1101.17 614.132 1100.97C617.336 1100.85 620.796 1103.73 623.808 1105.72C626.306 1107.32 628.421 1109.56 631.753 1112.51C632.586 1101.17 633.355 1091.17 634.188 1080.47C662.7 1080.47 690.957 1080.47 720.367 1080.47C720.367 1112.12 720.367 1143.9 720.367 1176.9C715.113 1170.49 708.962 1165.82 709.41 1156.72C709.859 1147.3 709.539 1137.88 709.539 1127.95C687.946 1127.95 667.634 1127.95 645.913 1127.95C645.913 1133.97 645.913 1139.99 645.913 1146.02C645.913 1155.5 645.785 1164.98 646.041 1174.47C646.105 1178.38 644.824 1180.3 640.787 1179.98C640.531 1179.98 640.275 1179.98 640.018 1179.98C632.073 1179.34 620.86 1181.51 617.016 1177.22C612.787 1172.42 615.222 1161.65 613.94 1153.51C613.94 1162.04 613.94 1170.56 613.94 1180.04C605.29 1180.04 597.409 1180.3 589.592 1179.85C588.054 1179.78 585.427 1177.09 585.427 1175.56C585.171 1142.05 585.235 1108.53 585.235 1074.45C592.091 1074.13 600.356 1073.74 608.622 1073.36C608.622 1072.72 608.622 1072.01 608.622 1071.37C603.945 1071.12 599.331 1070.79 593.436 1070.41C595.615 1059.58 597.665 1049.2 599.844 1038.37C596.64 1036.9 593.436 1035.49 589.592 1033.76C590.425 1029.66 591.258 1025.56 592.283 1020.62C581.198 1020.62 570.434 1020.62 558.836 1020.62C556.53 1073.36 554.223 1125.9 551.916 1178.5C551.083 1178.5 550.186 1178.5 549.353 1178.5C549.353 1131.6 549.353 1084.7 549.353 1037.86C548.008 1037.8 546.662 1037.73 545.317 1037.67C540.575 1047.79 545.829 1059.01 543.779 1070.09C541.152 1070.54 538.205 1070.99 535.706 1071.44C531.413 1076.37 540.575 1086.24 528.593 1087.26C528.593 1101.49 528.593 1115.26 528.593 1129.68C525.902 1129.94 523.532 1130.13 519.943 1130.38C520.776 1104.05 521.609 1078.36 522.442 1052.15C519.687 1051.57 517.252 1051.06 513.792 1050.29C516.163 1038.31 518.534 1026.46 521.097 1013.38C504.502 1013.58 505.847 1002.75 505.911 991.792C506.039 972.633 505.719 972.633 486.625 972.633C469.197 972.633 451.769 972.633 434.341 972.633C431.201 972.633 428.061 972.633 424.922 972.633C424.922 973.594 424.858 974.62 424.858 975.581C450.487 975.581 476.181 975.581 502.323 975.581C502.323 1006.34 502.323 1035.62 502.323 1065.93C488.675 1065.93 475.412 1065.93 462.213 1065.93C455.805 1065.93 449.398 1065.73 442.99 1066.05C440.94 1066.18 438.954 1067.78 436.968 1068.74C438.89 1069.71 440.812 1071.5 442.798 1071.56C459.714 1071.82 476.629 1071.69 493.545 1071.69C496.3 1071.69 499.055 1071.69 502.387 1071.69C502.387 1102.51 502.387 1132.63 502.387 1163.7C480.986 1163.7 459.65 1163.7 438.249 1163.7C438.249 1164.47 438.249 1165.18 438.185 1165.94C471.503 1165.94 504.886 1165.94 538.845 1165.94C538.845 1171.13 538.845 1175.04 538.845 1179.46C499.888 1179.46 461.316 1179.46 421.91 1179.46C421.91 1123.27 421.91 1067.33 421.91 1010.82C409.736 1010.82 398.331 1010.82 385.708 1010.82C385.708 1022.03 385.965 1033.25 385.58 1044.33C385.388 1048.75 388.72 1055.03 380.775 1056.95C380.134 1057.08 380.198 1060.74 380.134 1062.79C380.07 1068.1 380.134 1073.42 380.134 1079.32C376.353 1079.32 373.15 1079.32 368.985 1079.32C368.985 1067.46 368.985 1055.55 368.985 1043.05C362.578 1043.05 357.067 1043.05 350.211 1043.05C350.211 1050.23 349.763 1057.6 350.339 1064.84C350.916 1072.91 347.648 1077.33 338.806 1078.93C338.806 1070.86 338.806 1062.91 338.806 1054.78C331.758 1054.78 325.735 1054.78 319.328 1054.78C319.328 1077.52 319.328 1099.76 319.328 1123.08C345.982 1123.08 372.701 1123.08 400.253 1123.08C400.253 1142.43 400.253 1160.69 400.253 1179.46C353.223 1179.91 306.256 1179.91 258.649 1179.91Z" fill="#E9F3FA"/>
<path d="M1244.17 1076.88C1242.31 1071.76 1239.56 1066.82 1238.92 1061.57C1238.02 1053.82 1238.66 1045.87 1238.66 1037.6C1244.56 1037.6 1249.23 1037.6 1255 1037.6C1255 1042.73 1254.36 1047.6 1255.19 1052.21C1255.96 1056.25 1258.4 1059.97 1260.13 1063.87C1261.09 1063.62 1262.05 1063.36 1263.01 1063.11C1263.01 989.933 1263.01 916.761 1263.01 843.204C1279.22 843.204 1294.28 843.204 1310.17 843.204C1310.17 884.98 1310.17 926.628 1310.17 967.635C1311.45 968.468 1311.9 969.045 1312.22 968.981C1320.87 967.7 1324.59 971.864 1327.15 979.874C1331.89 994.995 1338.17 1009.6 1343.17 1024.66C1345.15 1030.56 1348.1 1032.61 1354.19 1032.16C1361.56 1031.58 1368.99 1032.03 1376.87 1032.03C1376.87 1034.72 1376.87 1036.84 1376.87 1039.59C1382.7 1039.59 1388.08 1039.59 1393.85 1039.59C1393.85 1046.45 1393.85 1052.73 1393.85 1059.84C1386.29 1059.84 1378.98 1059.84 1370.98 1059.84C1368.6 1068.23 1366.11 1075.92 1364.38 1083.8C1363.16 1089.44 1360.72 1093.03 1354.64 1093.54C1347.08 1094.12 1345.03 1098.09 1345.15 1105.59C1345.67 1129.36 1345.35 1153.19 1345.35 1177.61C1362.84 1177.61 1379.82 1177.61 1397.63 1177.61C1397.89 1173.95 1398.34 1170.24 1398.34 1166.52C1398.27 1123.98 1398.08 1081.43 1398.27 1038.95C1398.27 1035.81 1400.83 1032.48 1402.76 1029.6C1405.9 1024.85 1409.42 1020.43 1413.2 1015.31C1420.31 1015.31 1428.07 1014.54 1435.56 1015.56C1441.14 1016.27 1446.58 1018.96 1451.71 1021.52C1452.86 1022.1 1452.8 1025.69 1452.86 1027.93C1452.93 1052.53 1452.93 1077.14 1452.93 1101.74C1452.93 1104.63 1453.18 1107.51 1453.31 1110.39C1453.95 1110.39 1454.66 1110.33 1455.3 1110.33C1455.3 1054.14 1455.3 997.878 1455.3 941.493C1443.64 937.969 1439.6 939.315 1432.81 949.246C1431.53 951.168 1430.37 953.219 1428.83 954.885C1416.21 968.981 1410.89 985.128 1413.39 1004.09C1414.67 1013.96 1404.68 1015.18 1398.21 1019.92C1398.21 1005.76 1397.57 991.599 1398.59 977.503C1398.91 973.082 1403.33 968.468 1406.73 964.752C1421.59 948.734 1428.71 930.473 1425.57 908.303C1424.29 899.268 1425.37 889.978 1425.37 880.046C1438.64 880.046 1451.52 880.046 1465.29 880.046C1465.29 924.45 1465.29 968.661 1465.29 1013.26C1469.2 1013.26 1472.15 1013.26 1475.99 1013.26C1476.19 1009.54 1476.38 1005.82 1476.57 1001.47C1489 1003.65 1497.91 988.716 1511.36 995.956C1511.36 998.455 1511.36 1001.47 1511.36 1005.18C1515.01 1005.5 1518.47 1005.82 1523.15 1006.21C1523.15 1026.2 1523.15 1046.25 1523.15 1066.63C1527.83 1067.08 1531.29 1067.4 1535.58 1067.85C1535.58 1079.7 1535.58 1091.36 1535.58 1103.86C1545.26 1103.86 1554.1 1103.86 1563.97 1103.86C1563.97 1128.85 1563.97 1153 1563.97 1177.61C1581.27 1177.61 1597.48 1177.61 1614.84 1177.61C1614.84 1160.82 1615.1 1144.22 1614.71 1127.69C1614.59 1121.54 1617.79 1120.9 1622.4 1121.41C1623.43 1121.54 1625.22 1122.57 1625.22 1123.27C1625.29 1124.49 1624.32 1125.83 1623.68 1127.05C1622.53 1129.36 1620.35 1131.6 1620.35 1133.84C1620.48 1148.39 1621.12 1162.93 1621.63 1178.25C1645.21 1178.25 1667.83 1178.25 1690.51 1178.25C1690.51 1178.76 1690.51 1179.21 1690.51 1179.72C1667.13 1179.72 1643.74 1179.72 1619.33 1179.72C1619.33 1172.54 1619.33 1165.56 1619.33 1158.58C1618.62 1158.58 1617.92 1158.58 1617.21 1158.58C1617.21 1163.89 1617.6 1169.28 1617.02 1174.53C1616.76 1176.58 1614.33 1179.98 1612.86 1179.98C1596.26 1180.36 1579.66 1180.23 1562.17 1180.23C1562.17 1155.56 1562.17 1131.6 1562.17 1106.55C1552.31 1106.55 1543.27 1106.55 1533.53 1106.55C1533.53 1093.8 1533.53 1082.14 1533.53 1069.9C1529.17 1069.45 1525.46 1069.13 1520.97 1068.68C1520.97 1048.5 1520.97 1028.63 1520.97 1008.39C1516.68 1008.07 1513.16 1007.75 1509.12 1007.43C1509.12 1004.16 1509.12 1000.95 1509.12 997.43C1502.26 996.533 1496.5 995.444 1490.92 1000.89C1488.42 1003.32 1483.55 1003.32 1479.13 1004.54C1478.94 1007.55 1478.68 1011.08 1478.43 1014.41C1477.79 1014.86 1477.4 1015.31 1476.95 1015.37C1462.79 1017.04 1462.79 1017.04 1462.86 1003.07C1462.86 965.137 1462.86 927.205 1462.86 889.273C1462.86 887.03 1462.67 884.788 1462.54 881.84C1451 881.84 1439.92 881.84 1427.62 881.84C1427.62 893.566 1426.78 905.099 1427.81 916.376C1429.28 932.587 1425.69 946.555 1414.16 958.345C1402.69 970.006 1398.4 984.038 1400.58 1000.25C1401.22 1004.99 1400.71 1009.92 1400.71 1015.63C1407.63 1012.36 1412.69 1008.96 1411.47 1000.83C1408.97 983.91 1413.39 969.109 1424.99 956.422C1426.02 955.333 1426.66 953.86 1427.55 952.578C1437.93 937.008 1437.93 937.008 1457.92 938.418C1457.92 996.341 1457.92 1054.26 1457.92 1112.89C1455.87 1113.08 1453.76 1113.28 1450.62 1113.53C1450.62 1083.16 1450.62 1053.37 1450.62 1022.87C1440.62 1023.7 1433.9 1016.2 1423.96 1016.97C1417.11 1017.49 1412.62 1020.5 1409.68 1024.53C1405.77 1029.92 1400.13 1034.02 1400.32 1042.86C1401.15 1086.62 1400.71 1130.45 1400.71 1174.21C1400.71 1175.75 1400.51 1177.22 1400.39 1179.53C1381.48 1179.53 1362.71 1179.53 1343.42 1179.53C1343.23 1177.48 1342.91 1175.49 1342.91 1173.51C1342.85 1149.41 1343.04 1125.32 1342.78 1101.29C1342.72 1096.1 1343.81 1092.71 1349.38 1092.39C1358.22 1091.81 1362.01 1086.75 1363.48 1078.42C1364.63 1071.69 1367.07 1065.16 1369.05 1058.17C1376.55 1058.17 1383.66 1058.17 1391.42 1058.17C1391.42 1052.66 1391.42 1047.66 1391.42 1041.77C1385.9 1041.77 1380.2 1041.77 1374.12 1041.77C1374.12 1038.95 1374.12 1037.03 1374.12 1034.98C1373.35 1034.66 1372.71 1034.21 1372 1034.08C1370.98 1033.89 1369.95 1033.95 1368.93 1033.95C1360.79 1033.63 1350.66 1036.19 1345.15 1032.29C1339.58 1028.31 1338.55 1017.87 1335.67 1010.24C1332.4 1001.66 1328.94 993.073 1326.25 984.295C1323.69 975.965 1321.19 968.34 1309.08 971.992C1308.89 968.02 1308.57 965.072 1308.57 962.125C1308.5 926.244 1308.57 890.362 1308.57 854.481C1308.57 844.677 1308.57 844.677 1298.44 844.677C1288 844.677 1277.49 844.677 1266.21 844.677C1266.21 919.452 1266.21 993.521 1266.21 1068.36C1252.05 1062.85 1252.25 1051.64 1253.14 1039.98C1248.85 1039.98 1245.45 1039.98 1239.82 1039.98C1241.42 1051.64 1242.96 1062.79 1244.43 1073.93C1244.56 1074.9 1244.24 1075.92 1244.11 1076.88C1243.98 1077.07 1244.17 1076.88 1244.17 1076.88Z" fill="#E9F3FA"/>
<path d="M1167.48 981.988C1176.77 981.54 1186.12 981.091 1196.25 980.578C1196.25 997.622 1196.25 1013.38 1196.25 1029.79C1200.15 1026.58 1200.15 1026.58 1200.15 1009.8C1200.15 1002.36 1200.15 994.931 1200.15 987.498C1200.15 980.386 1200.15 973.274 1200.15 965.713C1205.34 965.713 1209.57 965.713 1214.7 965.713C1214.7 983.59 1214.7 1001.4 1214.7 1019.15C1215.53 1019.22 1216.3 1019.28 1217.13 1019.34C1220.02 1009.92 1217.13 999.801 1218.86 989.741C1227.77 989.741 1236.36 989.741 1245.45 989.741C1245.45 1003.9 1245.45 1017.87 1245.45 1033.12C1238.92 1033.12 1232.38 1033.18 1225.91 1033.12C1213.74 1032.99 1206.63 1042.6 1197.27 1047.92C1196.57 1048.3 1196.44 1050.23 1196.44 1051.44C1196.37 1071.18 1196.37 1090.85 1196.37 1111.16C1199.96 1111.55 1203.17 1111.87 1206.95 1112.31C1207.27 1116.42 1207.59 1120.39 1207.97 1125.32C1212.14 1125.58 1216.3 1125.83 1220.91 1126.09C1220.91 1132.63 1220.91 1138.84 1220.91 1145.38C1217.01 1145.7 1213.55 1146.02 1209.89 1146.27C1209.89 1156.78 1209.89 1166.91 1209.89 1177.61C1230.65 1177.61 1250.77 1177.61 1272.17 1177.61C1268.46 1167.48 1265.25 1157.42 1260.9 1147.88C1260 1145.83 1254.81 1145.76 1250.64 1144.48C1250.64 1132.05 1250.07 1119.04 1250.84 1106.1C1251.48 1095.53 1248.98 1086.04 1244.24 1076.82L1244.05 1077.01C1247.12 1082.9 1252.37 1088.67 1252.89 1094.76C1254.17 1110.52 1253.34 1126.41 1253.34 1143.01C1262.18 1141.21 1263.91 1146.98 1265.89 1153.07C1268.71 1161.78 1272.11 1170.3 1275.57 1179.72C1252.63 1179.72 1230.59 1179.72 1207.84 1179.72C1207.84 1167.87 1207.84 1156.21 1207.84 1143.84C1211.17 1143.52 1214.64 1143.13 1218.8 1142.75C1218.8 1138.07 1218.8 1133.4 1218.8 1128.21C1214.7 1127.95 1210.66 1127.69 1205.92 1127.44C1205.73 1123.34 1205.47 1119.36 1205.22 1114.62C1201.88 1114.24 1198.49 1113.79 1193.81 1113.28C1193.81 1109.94 1193.81 1106.48 1193.81 1103.02C1193.81 1086.36 1193.55 1069.71 1194 1053.05C1194.07 1049.91 1196.37 1046 1198.87 1043.95C1211.43 1033.44 1225.53 1027.03 1243.4 1031.58C1243.4 1017.93 1243.4 1005.57 1243.4 992.432C1236.23 992.432 1229.05 992.432 1221.81 992.432C1217.71 1002.43 1226.68 1015.82 1212.97 1025.49C1212.97 1005.25 1212.97 986.73 1212.97 967.956C1209.19 967.956 1206.43 967.956 1202.72 967.956C1202.72 976.285 1202.72 984.551 1202.72 992.881C1202.72 1003.13 1202.78 1013.38 1202.72 1023.64C1202.65 1030.81 1202.65 1030.81 1194.13 1033.38C1194.13 1016.91 1194.13 1000.63 1194.13 983.782C1186.7 983.782 1179.91 983.782 1172.41 983.782C1172.41 1004.35 1172.41 1024.98 1172.41 1046.25C1167.22 1046.25 1162.8 1046.25 1157.61 1046.25C1157.61 1024.73 1157.61 1003.65 1157.61 981.924C1166.52 987.691 1166.45 979.81 1168.25 974.043C1173.88 974.043 1179.46 974.043 1185.42 974.043C1185.42 969.173 1185.42 965.008 1185.42 960.395C1179.07 960.395 1173.05 960.395 1166.77 960.395C1166.58 960.587 1166.07 960.908 1166 961.292C1164.72 970.903 1158.7 975.26 1149.54 975.901C1141.33 976.478 1139.16 980.771 1139.8 988.588C1140.57 998.007 1140.12 1007.55 1139.86 1017.04C1139.8 1019.22 1138.71 1022.8 1137.17 1023.38C1129.61 1026.14 1129.42 1031.84 1129.87 1038.31C1130.12 1042.15 1129.93 1046 1129.93 1050.8C1143.83 1050.8 1157.48 1050.8 1171.58 1050.8C1171.58 1091.62 1171.58 1131.47 1171.58 1171.84C1167.8 1171.84 1164.14 1171.84 1159.02 1171.84C1159.02 1166.01 1159.02 1159.99 1159.02 1154.03C1159.02 1143.78 1158.63 1133.52 1159.08 1123.27C1159.34 1118.15 1157.22 1116.22 1152.8 1114.56C1147.1 1112.38 1139.16 1112.96 1138.39 1103.41C1137.75 1103.6 1137.04 1103.73 1136.4 1103.92C1135.76 1107.77 1135.18 1111.55 1134.48 1115.71C1130.63 1115.97 1126.92 1116.29 1122.69 1116.61C1122.69 1130.06 1122.69 1143.26 1122.69 1157.62C1100.07 1157.62 1077.96 1157.62 1055.86 1157.62C1055.73 1158.45 1055.67 1159.35 1055.54 1160.18C1058.17 1160.75 1060.79 1161.84 1063.42 1161.91C1073.67 1162.1 1083.92 1161.97 1094.18 1162.04C1096.23 1162.04 1099.11 1161.59 1100.07 1162.74C1110.45 1174.53 1124.93 1169.08 1137.36 1172.03C1139.8 1172.61 1142.42 1172.54 1144.86 1173.12C1145.11 1173.19 1144.99 1175.17 1145.05 1176.26L1145.11 1176.2C1134.29 1174.92 1123.39 1173.89 1112.63 1172.1C1108.91 1171.52 1105.52 1169.08 1101.93 1167.55C1099.49 1166.52 1097.06 1164.79 1094.56 1164.73C1084.82 1164.41 1075.08 1164.15 1065.34 1164.73C1058.17 1165.18 1053.17 1162.36 1047.79 1155.95C1072.26 1155.95 1095.59 1155.95 1119.36 1155.95C1119.36 1142.3 1119.36 1129.68 1119.36 1116.86C1099.43 1116.86 1080.08 1116.86 1060.09 1116.86C1059.83 1122.18 1059.64 1126.99 1059.38 1131.92C1053.62 1134.29 1050.86 1133.14 1050.8 1126.35C1050.54 1104.31 1049.9 1082.26 1049.64 1060.22C1049.64 1058.11 1051.89 1056.06 1052.98 1053.94C1053.75 1052.34 1054.83 1050.61 1054.9 1048.95C1054.96 1043.88 1054.51 1038.76 1054.26 1032.99C1063.68 1032.99 1072.78 1032.99 1082.45 1032.99C1083.22 1036.58 1084.05 1040.42 1085.21 1045.61C1086.04 1040.49 1086.68 1036.77 1087.38 1032.67C1098.4 1032.67 1109.04 1032.67 1121.22 1032.67C1121.22 1059.52 1121.22 1086.24 1121.22 1113.28C1125.89 1113.28 1129.1 1113.28 1132.62 1113.28C1132.94 1109.43 1133.2 1105.91 1133.52 1101.93C1137.3 1101.68 1140.44 1099.56 1142.04 1105.91C1142.74 1108.66 1148.7 1110.91 1152.68 1111.87C1159.85 1113.53 1161.65 1117.31 1161.39 1124.36C1160.81 1139.16 1161.2 1154.03 1161.2 1169.6C1163.95 1169.79 1166.32 1169.92 1169.4 1170.11C1169.4 1131.15 1169.4 1092.84 1169.4 1053.75C1155.56 1053.75 1142.1 1053.75 1127.43 1053.75C1127.43 1044.84 1127.11 1036.77 1127.69 1028.76C1127.81 1026.9 1130.51 1024.73 1132.49 1023.64C1136.66 1021.39 1138.07 1018.45 1137.94 1013.77C1137.62 1003.52 1138.07 993.265 1137.75 983.013C1137.55 977.951 1139.22 975.452 1144.35 974.812C1146.84 974.491 1149.22 973.082 1151.71 972.825C1158.19 972.185 1162.03 969.173 1162.86 962.574C1163.44 958.088 1166.26 956.679 1170.49 957.255C1171.77 957.448 1173.05 957.32 1174.33 957.32C1189.58 957.384 1191.63 960.331 1187.08 975.901C1180.74 978.848 1171.58 972.121 1167.48 981.988C1165.23 984.038 1162.93 986.025 1159.98 988.588C1159.98 1006.02 1159.98 1024.85 1159.98 1043.88C1163.31 1043.88 1166.2 1043.88 1169.66 1043.88C1169.66 1024.47 1169.72 1005.57 1169.59 986.73C1169.53 985.128 1168.18 983.526 1167.48 981.988ZM1118.65 1113.79C1118.65 1087.01 1118.65 1061.31 1118.65 1035.3C1108.34 1035.3 1099.05 1035.3 1089.5 1035.3C1088.54 1043.76 1087.58 1051.7 1086.62 1059.71C1083.6 1052.79 1082.64 1046 1081.23 1039.27C1080.91 1037.67 1079.31 1035.11 1078.16 1035.04C1071.17 1034.66 1064.12 1034.85 1056.56 1034.85C1056.82 1040.94 1057.21 1045.74 1057.21 1050.55C1057.21 1052.41 1056.5 1055.67 1055.73 1055.8C1051.05 1056.57 1051.95 1059.84 1052.02 1062.79C1052.46 1083.99 1052.98 1105.27 1053.55 1126.48C1053.62 1127.88 1054.32 1129.23 1054.77 1130.64C1055.41 1130.58 1055.99 1130.51 1056.63 1130.45C1057.14 1125.07 1057.59 1119.68 1058.17 1113.79C1078.67 1113.79 1098.6 1113.79 1118.65 1113.79Z" fill="#E9F3FA"/>
<path d="M75.3335 976.67C75.0771 969.173 70.5279 965.393 64.3127 962.125C61.6857 960.715 60.5323 956.487 58.0975 952.45C53.8046 952.45 47.9738 952.45 41.6945 952.45C41.1179 954.885 40.6053 957.32 39.9005 960.459C36.3123 960.716 32.5961 960.972 27.9186 961.356C27.7905 963.919 27.5342 966.546 27.5342 969.237C27.5342 1006.14 27.342 1043.05 27.6624 1079.96C27.7264 1087.2 26.1887 1092.71 20.6142 1097.51C16.6416 1100.91 13.4379 1105.07 9.84976 1108.92C9.2731 1108.6 8.69644 1108.21 8.11975 1107.89C8.11975 1062.21 8.11975 1016.46 8.11975 970.134C0.430878 970.134 -6.55322 970.134 -13.9217 970.134C-14.4343 973.274 -14.9469 976.157 -15.5236 979.425C-20.3291 979.681 -24.8143 979.938 -30.1965 980.194C-30.1965 983.334 -30.1965 986.089 -30.1965 988.78C-30.1965 1013.9 -30.1325 1039.01 -30.3888 1064.13C-30.3888 1066.31 -32.311 1068.49 -33.3362 1070.67C-34.5536 1068.42 -36.668 1066.25 -36.8602 1063.94C-37.3088 1056.83 -37.0525 1049.65 -37.0525 1042.47C-42.1784 1038.95 -54.4806 1045.42 -50.7643 1031.2C-56.2106 1031.2 -60.888 1031.2 -66.2062 1031.2C-66.6547 1033.57 -67.1032 1036.19 -67.7439 1039.72C-72.6776 1039.72 -77.7395 1039.72 -82.7373 1039.72C-82.8013 1040.68 -82.8654 1041.71 -82.9295 1042.67C-68.7691 1045.49 -54.0321 1042.79 -39.2951 1044.72C-39.2951 1089.76 -39.2951 1134.68 -39.2951 1179.98C-49.9954 1179.98 -59.8628 1179.98 -70.4351 1179.98C-70.4351 1143.26 -70.4351 1107 -70.4351 1070.03C-77.3551 1070.03 -83.5702 1070.03 -90.4262 1070.03C-90.4262 1074.77 -90.4262 1079.19 -90.4262 1084.44C-86.1973 1084.76 -81.7121 1085.08 -76.6502 1085.47C-76.6502 1107.7 -76.5221 1129.42 -76.9065 1151.14C-76.9065 1153.07 -80.1743 1154.92 -83.2499 1158.26C-83.2499 1163.89 -83.2499 1171.52 -83.2499 1179.72C-97.9869 1179.72 -112.211 1179.72 -127.397 1179.72C-127.397 1171.33 -127.397 1162.81 -127.397 1154.35C-127.781 1154.35 -128.23 1154.35 -128.614 1154.35C-128.935 1161.01 -129.319 1167.67 -129.511 1174.27C-129.575 1178.18 -130.729 1180.36 -135.278 1180.36C-178.592 1180.23 -221.906 1180.3 -265.22 1180.23C-266.117 1180.23 -267.014 1179.72 -267.783 1178.25C-222.867 1178.25 -177.887 1178.25 -131.562 1178.25C-131.562 1159.09 -131.562 1140.76 -131.562 1120.96C-126.18 1121.73 -122.335 1122.25 -118.555 1122.76C-118.491 1123.66 -118.427 1124.55 -118.362 1125.45C-120.733 1126.35 -123.104 1127.24 -125.347 1128.08C-125.347 1144.29 -125.347 1160.82 -125.347 1177.73C-111.955 1177.73 -99.4606 1177.73 -86.3254 1177.73C-86.3254 1170.43 -86.3254 1163.19 -86.3254 1155.37C-92.4125 1154.86 -98.6277 1154.41 -105.355 1153.83C-105.355 1136.86 -105.355 1120.32 -105.355 1103.22C-98.051 1103.22 -91.0669 1103.22 -82.9936 1103.22C-82.9936 1119.62 -82.9936 1135.77 -82.9936 1152.75C-78.4443 1149.35 -76.7784 1104.31 -79.7899 1087.84C-83.9547 1087.65 -88.1836 1087.39 -93.0532 1087.2C-93.0532 1080.85 -93.0532 1074.64 -93.0532 1067.91C-85.2362 1067.91 -77.6754 1067.91 -68.9614 1067.91C-68.9614 1104.31 -68.9614 1140.76 -68.9614 1177.73C-59.3503 1177.73 -50.8284 1177.73 -41.7939 1177.73C-41.7939 1134.04 -41.7939 1090.66 -41.7939 1046.38C-56.3388 1046.38 -70.5632 1046.38 -85.3002 1046.38C-85.4925 1043.37 -85.6847 1041.19 -85.8769 1038.18C-80.3025 1037.67 -75.1125 1037.22 -69.6662 1036.77C-69.2817 1033.95 -69.0254 1031.52 -68.641 1028.51C-62.4899 1028.51 -56.4028 1028.51 -49.611 1028.51C-49.2906 1031.33 -48.9702 1034.27 -48.5858 1038.12C-44.5491 1038.37 -40.3202 1038.69 -34.938 1039.01C-34.938 1048.5 -34.938 1057.66 -34.938 1066.82C-34.1691 1066.82 -33.3362 1066.82 -32.5673 1066.82C-32.5673 1037.22 -32.5673 1007.55 -32.5673 977.503C-26.9288 977.183 -22.4436 976.99 -17.5099 976.734C-17.1254 973.787 -16.741 971.031 -16.3565 967.892C-7.96283 967.892 0.430878 967.892 10.042 967.892C10.042 1012.74 10.042 1057.6 10.042 1103.73C20.1016 1095.85 25.6761 1088.67 25.3557 1075.98C24.2664 1039.65 24.9712 1003.2 24.9712 966.803C24.9712 964.304 25.1635 961.805 25.2916 958.857C29.6487 958.601 33.6212 958.345 38.0424 958.088C38.3627 955.59 38.619 953.411 38.9394 950.592C46.5642 950.592 54.0609 950.592 62.2624 950.592C61.1731 958.088 65.7224 961.548 71.6812 964.175C77.7042 966.867 77.9605 971.416 75.1412 976.67H75.3335ZM-102.792 1151.53C-97.0899 1151.53 -91.5154 1151.53 -86.1332 1151.53C-86.1332 1135.83 -86.1332 1120.71 -86.1332 1105.33C-91.964 1105.33 -97.1539 1105.33 -102.792 1105.33C-102.792 1120.9 -102.792 1135.83 -102.792 1151.53Z" fill="#E9F3FA"/>
<path d="M252.371 1154.28C252.563 1145.12 252.947 1135.96 252.947 1126.73C253.011 1085.21 252.883 1043.69 253.011 1002.17C253.011 997.43 251.794 994.483 247.821 991.343C243.4 987.819 240.133 983.205 233.917 982.437C233.02 982.308 232.38 979.81 231.098 977.439C239.556 977.439 246.796 977.439 254.741 977.439C255.126 979.297 255.638 981.475 256.151 983.654C256.728 983.654 257.24 983.654 257.817 983.654C258.137 979.297 258.522 974.94 258.906 969.75C265.378 969.75 271.657 969.75 278.321 969.75C278.769 966.802 279.09 964.688 279.474 962.061C282.678 962.061 285.625 962.061 289.021 962.061C289.213 965.97 289.47 969.686 289.726 973.787C294.275 975.068 300.683 972.89 302.284 980.386C302.477 981.411 307.859 981.283 311.831 981.796C311.831 984.679 311.831 987.434 311.831 990.19C311.831 1047.6 311.703 1105.01 311.96 1162.42C312.024 1169.6 309.973 1172.1 302.925 1171.33C297.671 1170.81 292.289 1171.2 287.419 1171.2C282.742 1163.64 293.25 1149.29 275.694 1148.64C279.026 1146.98 282.357 1145.38 285.625 1143.71C285.561 1143.2 285.497 1142.75 285.369 1142.24C282.293 1141.79 279.154 1141.34 274.348 1140.57C277.936 1138.59 280.179 1137.3 284.151 1135.06C281.14 1133.97 279.218 1132.5 277.488 1132.69C260.188 1134.48 260.188 1134.55 260.252 1152.36C260.252 1154.54 260.252 1156.65 258.586 1158.77C258.586 1150.82 258.586 1142.94 258.586 1134.36C264.096 1133.14 269.799 1132.05 275.373 1130.64C279.794 1129.55 284.28 1129.61 285.369 1134.48C286.33 1138.97 292.481 1144.54 284.6 1148.07C291.52 1153.71 285.817 1161.84 289.149 1168.44C295.364 1168.44 301.9 1168.44 308.948 1168.44C308.948 1107 308.948 1045.61 308.948 983.974C305.168 981.604 296.902 986.409 297.671 977.118C294.083 976.862 291.136 976.67 287.547 976.478C287.419 973.915 287.547 971.608 287.035 969.494C286.522 967.635 285.241 965.97 284.344 964.175C283.383 965.841 282.421 967.507 281.524 969.237C281.204 969.878 280.948 970.583 280.435 971.992C274.284 971.992 267.941 971.992 261.085 971.992C260.764 976.926 260.572 981.155 260.124 987.691C252.435 982.949 246.604 974.555 238.21 979.681C243.08 983.718 248.654 988.011 253.716 992.752C255.062 994.034 255.446 996.853 255.446 998.968C255.51 1048.95 255.51 1098.92 255.382 1148.9C255.254 1150.7 253.332 1152.49 252.371 1154.28Z" fill="#E9F3FA"/>
<path d="M224.819 963.214C226.549 964.496 229.176 965.393 229.945 967.123C236.416 981.411 228.343 994.547 212.517 997.174C208.096 997.943 204.187 1001.79 198.933 1004.86C198.933 1034.79 198.933 1065.93 198.933 1097C198.356 1097.07 197.78 1097.13 197.203 1097.13C197.075 1094.69 196.819 1092.26 196.819 1089.76C196.819 1063.17 196.819 1036.52 196.755 1009.92C196.755 1006.72 198.292 1001.92 190.796 1003.39C190.796 1005.89 190.796 1008.58 190.796 1011.27C190.796 1035.3 190.86 1059.39 190.668 1083.42C190.668 1085.53 188.809 1087.58 187.784 1089.7H187.848C188.04 1063.36 188.233 1037.03 188.425 1010.69C188.425 1007.68 188.425 1004.67 188.425 1001.4C191.372 1000.83 193.551 1000.38 196.498 999.801C196.69 996.405 196.819 992.881 197.075 989.421C197.459 984.423 193.871 978.08 201.496 975.389C202.329 964.047 210.979 955.462 210.979 943.223C211.043 927.333 214.823 911.443 216.041 902.28C218.348 918.106 221.679 940.724 225.011 963.343C223.473 960.844 220.975 958.537 220.526 955.846C219.629 950.336 220.078 944.633 219.501 939.059C219.245 936.239 218.027 933.548 217.194 930.793C216.169 930.921 215.144 931.049 214.119 931.113C213.542 936.816 213.542 942.583 212.26 948.093C209.954 957.96 209.505 969.878 203.482 976.734C197.459 983.59 199.766 989.421 198.997 995.764C198.869 997.11 199.958 999.032 201.112 999.993C201.624 1000.44 203.61 999.096 204.956 998.519C207.968 997.174 211.171 996.084 213.926 994.354C218.668 991.407 226.229 988.78 227.126 984.807C228.599 978.272 225.78 970.519 224.819 963.214Z" fill="#E9F3FA"/>
<path d="M218.924 1120.52C220.525 1087.9 222.127 1055.35 223.729 1022.74C222.896 1022.68 222.063 1022.61 221.166 1022.61C218.795 1061.18 216.425 1099.69 214.054 1138.65C208.928 1138.97 204.379 1139.23 198.997 1139.55C198.997 1149.35 198.997 1158.7 198.997 1168.25C185.797 1165.05 185.797 1165.05 185.797 1153.19C185.797 1148.58 185.861 1143.97 185.925 1139.35C185.925 1138.84 186.182 1138.39 186.502 1137.3C189.45 1136.92 192.589 1136.54 196.69 1136.09C196.69 1124.36 196.69 1112.7 196.69 1101.1C197.331 1101.1 197.971 1101.1 198.612 1101.1C198.612 1112.57 198.612 1124.04 198.612 1136.15C203.418 1136.15 207.326 1136.15 211.94 1136.15C213.093 1117.25 214.246 1098.41 215.4 1079.57C216.489 1061.44 217.642 1043.31 218.475 1025.11C218.731 1020.24 220.526 1018.64 224.242 1019.6C224.242 1034.66 224.562 1049.39 224.178 1064.07C223.665 1080.92 222.576 1097.83 221.551 1114.69C221.423 1116.67 219.757 1118.53 218.796 1120.45L218.924 1120.52ZM196.434 1139.1C193.102 1139.35 190.731 1139.61 187.976 1139.8C187.976 1145.95 188.168 1151.27 187.912 1156.59C187.656 1162.81 191.18 1164.15 196.434 1164.21C196.434 1156.01 196.434 1148.13 196.434 1139.1Z" fill="#E9F3FA"/>
<path d="M155.683 1032.03C165.742 1027.8 158.886 1037.8 161.898 1039.91C165.101 1040.23 168.305 1040.55 172.598 1041C172.598 1067.33 172.598 1093.41 172.598 1119.49C173.559 1119.62 174.52 1119.68 175.417 1119.81C175.93 1116.03 176.443 1112.25 177.083 1107.83C180.351 1107.64 183.811 1107.38 187.848 1107.12C187.848 1101.23 187.848 1095.53 187.848 1089.76H187.784C189.193 1095.85 190.603 1102 192.141 1108.85C186.759 1109.37 183.299 1109.75 179.134 1110.14C178.813 1113.92 178.557 1117.57 178.173 1121.67C175.481 1121.67 173.111 1121.67 170.163 1121.67C170.163 1095.4 170.163 1069.58 170.163 1043.37C166.383 1043.11 163.115 1042.86 160.36 1042.67C158.758 1038.89 157.22 1035.3 155.747 1031.84C155.811 1031.84 155.683 1032.03 155.683 1032.03Z" fill="#E9F3FA"/>
<path d="M75.1414 976.606C75.5899 979.553 76.4869 982.501 76.4869 985.512C76.6151 1015.63 76.6791 1045.74 76.4869 1075.86C76.4228 1086.11 75.3976 1096.42 83.1506 1104.75L83.2788 1104.5C76.551 1101.42 73.8599 1096.49 73.924 1088.86C74.2443 1054.14 74.0521 1019.41 74.1162 984.743C74.1162 982.052 74.8851 979.425 75.2695 976.734C75.3336 976.67 75.1414 976.606 75.1414 976.606Z" fill="#E9F3FA"/>
<path d="M120.057 1021.39C120.378 1024.92 120.698 1028.38 120.954 1031.52C119.865 1032.16 119.417 1032.61 118.968 1032.67C108.46 1034.14 97.9519 1035.55 86.7389 1037.09C86.7389 1060.99 86.7389 1083.8 86.7389 1106.61C86.2263 1106.8 85.7137 1107 85.2652 1107.12C84.6245 1106.23 83.9838 1105.33 83.343 1104.5L83.2148 1104.75C83.5993 1102.06 84.3682 1099.37 84.3682 1096.62C84.4963 1076.5 84.4323 1056.38 84.4323 1035.43C95.7093 1033.25 106.538 1031.2 117.879 1029.02C118.392 1027.29 119.289 1024.41 120.186 1021.59C120.186 1021.52 120.057 1021.39 120.057 1021.39Z" fill="#E9F3FA"/>
<path d="M218.731 1120.52C219.5 1123.78 220.91 1127.05 220.846 1130.38C220.717 1140.44 220.077 1150.5 219.628 1161.01C231.033 1161.01 241.541 1161.01 252.883 1161.01C252.69 1158.64 252.562 1156.46 252.37 1154.28H252.306C253.523 1156.97 254.805 1159.67 256.535 1163.45C242.438 1163.45 230.264 1163.45 216.937 1163.45C217.578 1148.97 218.218 1134.8 218.859 1120.58C218.923 1120.52 218.731 1120.52 218.731 1120.52Z" fill="#E9F3FA"/>
<path d="M120.185 1021.52C127.233 1020.69 134.217 1019.86 141.778 1018.96C142.355 1023.44 142.739 1026.65 143.124 1029.79C147.417 1030.56 151.518 1031.33 155.682 1032.03L155.81 1031.84C150.941 1032.41 146.071 1032.93 140.753 1033.57C140.369 1029.15 140.112 1025.94 139.728 1021.46C133.128 1021.46 126.593 1021.46 120.057 1021.46C120.057 1021.39 120.185 1021.52 120.185 1021.52Z" fill="#E9F3FA"/>
</g>
<defs>
<clipPath id="clip0_356_3">
<rect width="1420" height="1254" fill="white"/>
</clipPath>
</defs>
</svg>
